<svg id="Logo.svg" xmlns="http://www.w3.org/2000/svg" width="586" height="208" viewBox="0 0 586 208">
  <defs>
    <style>
      .cls-1, .cls-2 {
        fill: #fff;
        fill-rule: evenodd;
      }

      .cls-1 {
        opacity: 0.5;
      }
    </style>
  </defs>
  <path id="Shape" class="cls-1" d="M1254.58,453.732a38.434,38.434,0,0,1,5.45-.369,8.921,8.921,0,0,1,5.58,1.465,5.08,5.08,0,0,1,1.86,4.245,5.849,5.849,0,0,1-1.8,4.651,7.861,7.861,0,0,1-5.32,1.575,22.729,22.729,0,0,1-2.35-.1v6.374h-3.42V453.732Zm3.42,8.811a13.159,13.159,0,0,0,2.03.147,4.679,4.679,0,0,0,3.06-.873,3.074,3.074,0,0,0,1.06-2.5c0-2.182-1.38-3.273-4.12-3.273a12.883,12.883,0,0,0-2.03.147v6.35Zm11.65-3.766h3.09l0.03,2.461h0.05a7.239,7.239,0,0,1,5.92-2.707v2.609a6.317,6.317,0,0,0-4.27,1.317,4.42,4.42,0,0,0-1.53,3.531v5.586h-3.29v-12.8Zm12.37,1.551a6.98,6.98,0,0,1,9.35,0,7.692,7.692,0,0,1,0,9.7,6.983,6.983,0,0,1-9.35,0A7.692,7.692,0,0,1,1282.02,460.328Zm2.35,7.985a3.059,3.059,0,0,0,4.65,0,6.216,6.216,0,0,0,0-6.275,3.061,3.061,0,0,0-4.65,0A6.216,6.216,0,0,0,1284.37,468.313Zm22.99-15.2v18.457h-3.02l-0.05-1.8h-0.05a4.848,4.848,0,0,1-7.67.307,7.538,7.538,0,0,1-1.43-4.909,7.687,7.687,0,0,1,1.38-4.947,4.889,4.889,0,0,1,7.57.2h0.05v-7.309h3.22Zm-9.12,12.059a4.934,4.934,0,0,0,.83,3.064,2.608,2.608,0,0,0,2.15,1.07,2.527,2.527,0,0,0,2.11-1.046,4.75,4.75,0,0,0,.81-2.965v-0.246a4.772,4.772,0,0,0-.81-2.941,2.509,2.509,0,0,0-2.11-1.071,2.592,2.592,0,0,0-2.2,1.034A5.117,5.117,0,0,0,1298.24,465.176Zm15.71-6.4v7.629a3.981,3.981,0,0,0,.46,2.252,1.859,1.859,0,0,0,1.57.6,2.567,2.567,0,0,0,1.99-1.1,3.974,3.974,0,0,0,.89-2.572v-6.817h3.22v12.8h-3l-0.07-1.8h-0.05a5.266,5.266,0,0,1-1.84,1.5,4.958,4.958,0,0,1-2.25.541,3.808,3.808,0,0,1-3.1-1.193,6.115,6.115,0,0,1-.99-3.9v-7.949h3.17Zm20.99,9.746,0.74,2.387a10.146,10.146,0,0,1-4.21.91,6.887,6.887,0,0,1-4.97-1.8,6.432,6.432,0,0,1-1.87-4.848,6.524,6.524,0,0,1,1.81-4.885,6.913,6.913,0,0,1,5.03-1.76,10.147,10.147,0,0,1,4.21.911l-0.74,2.436a6.579,6.579,0,0,0-3.29-.886,3.492,3.492,0,0,0-2.74,1.083,5.287,5.287,0,0,0,.05,6.2,3.454,3.454,0,0,0,2.69,1.132A6.471,6.471,0,0,0,1334.94,468.523Zm6.27-2.19a3.225,3.225,0,0,0,1.13,2.3,3.788,3.788,0,0,0,2.54.849,8.041,8.041,0,0,0,3.64-.91l0.74,2.264a11.481,11.481,0,0,1-4.7.984,6.218,6.218,0,0,1-6.57-6.644,6.8,6.8,0,0,1,1.68-4.873,6.015,6.015,0,0,1,4.56-1.772,5.862,5.862,0,0,1,4.48,1.7,6.868,6.868,0,0,1,1.59,4.873,10.161,10.161,0,0,1-.07,1.231h-9.02Zm0-2.191h6.05a3.6,3.6,0,0,0-.81-2.448,3.207,3.207,0,0,0-4.36.012A3.688,3.688,0,0,0,1341.21,464.142Zm23.49-11.025v18.457h-3.02l-0.05-1.8h-0.05a4.848,4.848,0,0,1-7.67.307,7.537,7.537,0,0,1-1.42-4.909,7.687,7.687,0,0,1,1.37-4.947,4.889,4.889,0,0,1,7.57.2h0.05v-7.309h3.22Zm-9.12,12.059a4.934,4.934,0,0,0,.83,3.064,2.608,2.608,0,0,0,2.15,1.07,2.558,2.558,0,0,0,2.12-1.046,4.816,4.816,0,0,0,.8-2.965v-0.246a4.838,4.838,0,0,0-.8-2.941,2.539,2.539,0,0,0-2.12-1.071,2.592,2.592,0,0,0-2.2,1.034A5.117,5.117,0,0,0,1355.58,465.176Zm20.32-12.059h3.22v7.309h0.05a4.889,4.889,0,0,1,7.57-.2,7.687,7.687,0,0,1,1.38,4.947,7.538,7.538,0,0,1-1.43,4.909,4.848,4.848,0,0,1-7.67-.307h-0.05l-0.05,1.8h-3.02V453.117Zm9.12,12.059a5.117,5.117,0,0,0-.78-3.1,2.586,2.586,0,0,0-2.19-1.034,2.527,2.527,0,0,0-2.12,1.071,4.772,4.772,0,0,0-.81,2.941V465.3a4.75,4.75,0,0,0,.81,2.965,2.545,2.545,0,0,0,2.12,1.046,2.59,2.59,0,0,0,2.14-1.07A4.934,4.934,0,0,0,1385.02,465.176Zm10.53,3.027h0.05l3.22-9.426h3.4l-7.19,18.211h-3.39l2.33-5.414-4.79-12.8h3.55Zm20.3-3.642v7.013h-3.42V453.732a37.725,37.725,0,0,1,5.45-.369,9.127,9.127,0,0,1,5.45,1.342,4.418,4.418,0,0,1,1.81,3.777,5.217,5.217,0,0,1-.95,3.1,4.936,4.936,0,0,1-2.59,1.846v0.049a5.591,5.591,0,0,1,2.05,2.928l1.99,5.168h-3.57l-1.89-5.094a3.068,3.068,0,0,0-1.01-1.55,3.82,3.82,0,0,0-1.96-.369h-1.36Zm0-2.609h1.46q4.41,0,4.41-3.125,0-2.781-4.09-2.781a9.5,9.5,0,0,0-1.78.147v5.759Zm14.32,4.381a3.225,3.225,0,0,0,1.13,2.3,3.788,3.788,0,0,0,2.54.849,8.041,8.041,0,0,0,3.64-.91l0.74,2.264a11.481,11.481,0,0,1-4.7.984,6.218,6.218,0,0,1-6.57-6.644,6.8,6.8,0,0,1,1.68-4.873,6.015,6.015,0,0,1,4.56-1.772,5.862,5.862,0,0,1,4.48,1.7,6.868,6.868,0,0,1,1.59,4.873,10.161,10.161,0,0,1-.07,1.231h-9.02Zm0-2.191h6.05a3.6,3.6,0,0,0-.81-2.448,3.207,3.207,0,0,0-4.36.012A3.688,3.688,0,0,0,1430.17,464.142Zm16.97-5.611a6.328,6.328,0,0,1,4.24,1.145,4.721,4.721,0,0,1,1.29,3.7v4.75a15.921,15.921,0,0,0,.37,3.445h-3.05a17.131,17.131,0,0,1-.22-1.9h-0.05a4.686,4.686,0,0,1-1.87,1.575,5.812,5.812,0,0,1-2.56.566,4.09,4.09,0,0,1-2.89-1,3.582,3.582,0,0,1-1.08-2.769,4.022,4.022,0,0,1,1.82-3.433,9,9,0,0,1,5.24-1.292h1.07v-0.074a2.518,2.518,0,0,0-.52-1.821,2.632,2.632,0,0,0-1.86-.517,9.856,9.856,0,0,0-4.58,1.108l-0.48-2.387A11.893,11.893,0,0,1,1447.14,458.531Zm-2.8,9.278a1.62,1.62,0,0,0,.47,1.23,1.824,1.824,0,0,0,1.29.443,3.319,3.319,0,0,0,2.38-.91,3,3,0,0,0,.97-2.289v-0.836h-1.07a5.71,5.71,0,0,0-3,.652A1.963,1.963,0,0,0,1444.34,467.809Zm12.62,3.765V453.117h3.42v18.457h-3.42Zm7.7-5.832v-2.609h8.03v2.609h-8.03Zm20.62-9.6a5.886,5.886,0,0,0-4.46,1.735,6.521,6.521,0,0,0-1.66,4.713,6.429,6.429,0,0,0,1.71,4.7,5.9,5.9,0,0,0,4.41,1.747,8.217,8.217,0,0,0,4.41-1.353l1.04,2.535a10.537,10.537,0,0,1-5.8,1.6,9.228,9.228,0,0,1-6.77-2.5,10.264,10.264,0,0,1-.04-13.473,9.243,9.243,0,0,1,6.81-2.486,10.537,10.537,0,0,1,5.8,1.6l-1.04,2.535A8.218,8.218,0,0,0,1485.28,456.144Zm9.23,4.184a6.967,6.967,0,0,1,9.34,0,7.692,7.692,0,0,1,0,9.7,6.97,6.97,0,0,1-9.34,0A7.692,7.692,0,0,1,1494.51,460.328Zm2.34,7.985a3.07,3.07,0,0,0,4.66,0,6.279,6.279,0,0,0,0-6.275,3.072,3.072,0,0,0-4.66,0A6.279,6.279,0,0,0,1496.85,468.313Zm11.28-9.536h3l0.07,1.8h0.05a5.323,5.323,0,0,1,1.83-1.5,5.031,5.031,0,0,1,2.26-.542,3.873,3.873,0,0,1,3.28,1.366,7.419,7.419,0,0,1,1.05,4.467v7.21h-3.17v-6.89a5.711,5.711,0,0,0-.49-2.867,1.987,1.987,0,0,0-1.79-.751,2.556,2.556,0,0,0-1.98,1.108,4.019,4.019,0,0,0-.89,2.583v6.817h-3.22v-12.8Zm14.84,0h3l0.07,1.8h0.05a5.266,5.266,0,0,1,1.84-1.5,4.99,4.99,0,0,1,2.25-.542,3.906,3.906,0,0,1,3.29,1.366,7.419,7.419,0,0,1,1.05,4.467v7.21h-3.17v-6.89a5.686,5.686,0,0,0-.5-2.867,1.968,1.968,0,0,0-1.78-.751,2.558,2.558,0,0,0-1.99,1.108,4.019,4.019,0,0,0-.89,2.583v6.817h-3.22v-12.8Zm17.2,7.556a3.225,3.225,0,0,0,1.13,2.3,3.77,3.77,0,0,0,2.54.849,8.041,8.041,0,0,0,3.64-.91l0.74,2.264a11.528,11.528,0,0,1-4.71.984,6.217,6.217,0,0,1-6.56-6.644,6.8,6.8,0,0,1,1.68-4.873,6,6,0,0,1,4.56-1.772,5.825,5.825,0,0,1,4.47,1.7,6.826,6.826,0,0,1,1.6,4.873,10.161,10.161,0,0,1-.07,1.231h-9.02Zm0-2.191h6.04a3.547,3.547,0,0,0-.8-2.448,3.207,3.207,0,0,0-4.36.012A3.688,3.688,0,0,0,1540.17,464.142Zm21.46,4.381,0.74,2.387a10.18,10.18,0,0,1-4.21.91,6.871,6.871,0,0,1-4.97-1.8,6.4,6.4,0,0,1-1.87-4.848,6.485,6.485,0,0,1,1.81-4.885,6.9,6.9,0,0,1,5.03-1.76,10.181,10.181,0,0,1,4.21.911l-0.74,2.436a6.588,6.588,0,0,0-3.3-.886,3.521,3.521,0,0,0-2.74,1.083,5.287,5.287,0,0,0,.05,6.2,3.469,3.469,0,0,0,2.69,1.132A6.534,6.534,0,0,0,1561.63,468.523Zm9.27-9.253h4.43v2.387h-4.43V466.9a3.542,3.542,0,0,0,.37,1.956,1.541,1.541,0,0,0,1.33.5,5.88,5.88,0,0,0,2.23-.418l0.4,2.387a10.7,10.7,0,0,1-3.29.492,4.586,4.586,0,0,1-3.31-1.009,4.536,4.536,0,0,1-1.03-3.347v-5.807h-2.68V459.27h2.68v-4.676h3.3v4.676Zm16.13,12.3V453.61h3.81v17.964h-3.81Zm7.98-12.8H1598l0.08,1.8h0.05a5.144,5.144,0,0,1,1.83-1.5,5.031,5.031,0,0,1,2.26-.542,3.885,3.885,0,0,1,3.28,1.366,7.419,7.419,0,0,1,1.05,4.467v7.21h-3.17v-6.89a5.711,5.711,0,0,0-.49-2.867,2,2,0,0,0-1.79-.751,2.526,2.526,0,0,0-1.98,1.108,3.964,3.964,0,0,0-.89,2.583v6.817h-3.22v-12.8Zm24.28,9.746,0.74,2.387a10.18,10.18,0,0,1-4.21.91,6.887,6.887,0,0,1-4.97-1.8,6.4,6.4,0,0,1-1.87-4.848,6.485,6.485,0,0,1,1.81-4.885,6.913,6.913,0,0,1,5.03-1.76,10.181,10.181,0,0,1,4.21.911l-0.74,2.436a6.588,6.588,0,0,0-3.3-.886,3.485,3.485,0,0,0-2.73,1.083,5.287,5.287,0,0,0,.05,6.2,3.447,3.447,0,0,0,2.68,1.132A6.481,6.481,0,0,0,1619.29,468.523Zm4.16,3.051v-4.183h3.97v4.183h-3.97Z" transform="translate(-1148 -269)"/>
  <path id="Shape-2" data-name="Shape" class="cls-2" d="M1148,419.224V408.207h2.72v11.017H1148Zm15.46-11.017v6.561q0,6.312-2.97,9.456t-9.52,3.912l-0.57-2.451q5.775-.767,8.03-3.156t2.25-7.687v-6.635h2.78Zm7.58,3.02V408.95h19.83v2.277a12.659,12.659,0,0,1-2.53,4.692,14.141,14.141,0,0,1-4.26,3.478l-1.41-2.079a10.643,10.643,0,0,0,5.4-6.091h-17.03Zm6.87,2.179h2.6a30.176,30.176,0,0,1-.68,7.043,10.6,10.6,0,0,1-2.16,4.444,11.441,11.441,0,0,1-4.07,2.872l-1.24-2.154a8.866,8.866,0,0,0,3.31-2.364,9.043,9.043,0,0,0,1.71-3.751A28.564,28.564,0,0,0,1177.91,413.406Zm20.94-5.075h2.73v4.951a41.256,41.256,0,0,1-.56,7.712,9.6,9.6,0,0,1-1.75,4.208,10.025,10.025,0,0,1-3.52,2.563l-1.41-2.228a8.26,8.26,0,0,0,2.87-2.13,7.416,7.416,0,0,0,1.27-3.379,44.582,44.582,0,0,0,.37-6.746v-4.951Zm6.57,0h2.72v16.562q5.49-1.164,6.2-8.714l2.48,0.322c-0.32,3.581-1.41,6.321-3.3,8.219a10.234,10.234,0,0,1-7.61,2.847h-0.49V408.331Zm19.82-1.139,2.48,0.173a21.686,21.686,0,0,1-.34,2.2h11.49v0.99q0,8.442-3.92,12.527t-12.56,4.8l-0.37-2.352a25.241,25.241,0,0,0,7.14-1.585,10.545,10.545,0,0,0,4.44-3.292c-2.85-1.436-5.37-2.641-7.59-3.615l1.19-2.277q4.14,1.832,7.68,3.639a18.5,18.5,0,0,0,1.24-6.486h-9.39a18.49,18.49,0,0,1-4.88,7.451l-1.76-1.609a16.444,16.444,0,0,0,3.47-4.79A17.833,17.833,0,0,0,1225.24,407.192Zm19.51,10a34.465,34.465,0,0,0,10.3-3.182,28.543,28.543,0,0,0,8.26-5.83l1.61,1.832a30.516,30.516,0,0,1-7.28,5.4v12.552h-2.78v-11.19a36.836,36.836,0,0,1-9.72,2.822Zm31.79-9.259,2.66,0.5a121.6,121.6,0,0,1-4.71,15.794q6.27-.493,11.52-1.287c-1.2-2.508-2.19-4.522-2.95-6.04l2.38-1.114q2.8,5.5,5.16,10.744l-2.46,1.04c-0.1-.232-0.27-0.615-0.5-1.152s-0.44-.953-0.59-1.25a159.868,159.868,0,0,1-17.99,1.733l-0.07-2.352c0.52-.016,1.38-0.057,2.55-0.124A130.919,130.919,0,0,0,1276.54,407.935Zm26.03,11.784v-3.714h3.71v3.714h-3.71Zm16.92-10.026,2.51-1.04q1.98,4.084,3.91,8.541l-2.58.965Q1321.8,414.57,1319.49,409.693Zm16.78-1.313,2.6,0.149a35.865,35.865,0,0,1-1.1,8,14.3,14.3,0,0,1-2.81,5.5,12.932,12.932,0,0,1-4.76,3.5,27.719,27.719,0,0,1-7.09,1.869l-0.49-2.4a26.347,26.347,0,0,0,6.2-1.683,10.962,10.962,0,0,0,4.09-3.033,12.37,12.37,0,0,0,2.41-4.8A34.429,34.429,0,0,0,1336.27,408.38Zm7.56,10.769v-2.6h20.32v2.6h-20.32Zm25.97-5.124q3.345,0.594,8.13,1.56l-0.47,2.4q-4.515-.915-8.13-1.56Zm17.03-2.748,2.48,0.421q-1.395,7.823-5.7,11.511t-12.89,4.432l-0.37-2.476c5.24-.445,9.08-1.7,11.55-3.775S1386,415.948,1386.83,411.277Zm-15.91-3.317q3.51,0.57,8.42,1.559l-0.47,2.4q-4.9-.99-8.42-1.56Zm27.66,3.911,2.57-.446,0.72,3.961,9.82-2.005,0.47,2.327a13.888,13.888,0,0,1-1.6,4.036,13.166,13.166,0,0,1-2.69,3.317l-1.88-1.634a12.124,12.124,0,0,0,3.47-5.149l-7.17,1.436,1.79,9.976-2.58.446-1.78-9.9-4.56.941-0.48-2.327,4.61-.941Zm23.32-3.54h2.72v4.951a40.412,40.412,0,0,1-.56,7.712,9.6,9.6,0,0,1-1.74,4.208,10.215,10.215,0,0,1-3.52,2.563l-1.41-2.228a8.26,8.26,0,0,0,2.87-2.13,7.307,7.307,0,0,0,1.26-3.379,44.3,44.3,0,0,0,.38-6.746v-4.951Zm6.56,0h2.73v16.562q5.475-1.164,6.2-8.714l2.47,0.322q-0.465,5.372-3.29,8.219a10.249,10.249,0,0,1-7.61,2.847h-0.5V408.331Zm18.1-.866h2.55V411.8h7.93v-4.332h2.65V411.8h4.21v2.352h-4.21v1.485q0,6.066-2.68,8.8t-9.19,3.33l-0.5-2.352a17.576,17.576,0,0,0,5.9-1.387,6.029,6.029,0,0,0,2.94-2.97,13.64,13.64,0,0,0,.88-5.422v-1.485h-7.93v5.322h-2.55v-5.322h-4.22V411.8h4.22v-4.332Zm21.18,11.684v-2.6h20.33v2.6h-20.33Zm26.08-10.694h2.65v7.229a87.181,87.181,0,0,0,14.27-3.64l0.72,2.352a89.919,89.919,0,0,1-14.99,3.763v3.466a2.75,2.75,0,0,0,3.47,3.466q6.195,0,11.15-.347l0.07,2.4q-5.94.37-11.4,0.371-3.42,0-4.68-1.25t-1.26-4.691V408.455Zm12.29-.619,2.01-1.04q1.485,2.625,2.2,4.035l-2.01.966Q1507.17,409.643,1506.11,407.836Zm3.67-.891,2.05-1.065q1.275,2.228,2.26,4.11l-2.06.99Q1511,409,1509.78,406.945Zm9.88,4.282v-2.4h15.62v2.4a27.714,27.714,0,0,1-5.08,7.7q3.735,3.415,7.16,6.907l-1.81,1.757q-3.57-3.639-7.11-6.907a39.087,39.087,0,0,1-9.77,6.685l-1.16-2.13a38.8,38.8,0,0,0,9.07-6.275,26.84,26.84,0,0,0,5.82-7.737h-12.74Zm47.41-14.2v10.166h0.09a18.426,18.426,0,0,1,5.96-6.9,13.777,13.777,0,0,1,7.81-2.36,10.293,10.293,0,0,1,8.52,3.858q3.06,3.858,3.07,10.893,0,10.938-6.18,16.021t-19.49,5.084l-0.23-4.312q11.265,0,16.08-3.9t4.82-12.89q0-5.039-1.82-7.625a5.986,5.986,0,0,0-5.22-2.587q-4.875,0-9.02,5.083a20.626,20.626,0,0,0-4.52,12.391h-4.5v-22.92h4.63Zm59.25,33.586a14.144,14.144,0,0,0,7.18-3.427,7.87,7.87,0,0,0,2.63-5.878,7.225,7.225,0,0,0-4.49-7.125,31.255,31.255,0,0,1-8.66,13.366q-5.61,4.88-11.38,4.879a7.982,7.982,0,0,1-5.95-2.247,8.329,8.329,0,0,1-2.23-6.149,12.634,12.634,0,0,1,2.95-8.238,17.859,17.859,0,0,1,8.18-5.424v-6.082h-9.31V400.43h9.31v-5.447h4.55v5.447h19.76v3.857H1619.1v4.948a34.793,34.793,0,0,1,5.45-.409q7.635,0,11.88,3.359a11.016,11.016,0,0,1,4.25,9.122,11.9,11.9,0,0,1-3.5,8.647,17.806,17.806,0,0,1-9.63,4.743Zm-11.77-15.7a12.82,12.82,0,0,0-4.84,3.744,8.006,8.006,0,0,0-1.75,4.925,5.244,5.244,0,0,0,1.07,3.54,3.79,3.79,0,0,0,3.02,1.225,8.457,8.457,0,0,0,2.5-.408V414.908Zm12.95-1.816a20.688,20.688,0,0,0-2.95-.181,25.481,25.481,0,0,0-5.45.545v11.936A27.633,27.633,0,0,0,1627.5,413.092Zm22.95,10.485q0-4.537,6.81-11.211l3.45,2.769q-5.4,5.22-5.4,7.988,0,2.679,3.27,4.289t9.13,1.611a59.67,59.67,0,0,0,7.75-.59,47.855,47.855,0,0,0,7.29-1.452l0.91,4.312a51,51,0,0,1-7.61,1.452,67.133,67.133,0,0,1-8.34.59q-7.995,0-12.63-2.678T1650.45,423.577Zm4.09-20.56v-4.176h26.35v4.176h-26.35Zm38.84-.318h8.86v-7.035h4.32v11.392a32.322,32.322,0,0,1,7.36-5.333,14.464,14.464,0,0,1,6.27-1.52q5.865,0,8.72,3.926t2.87,12.413a27.356,27.356,0,0,1-.91,7.352q1.41,1.726,3.13,4.085l-2.95,2.678c-0.73-.938-1.41-1.8-2.05-2.587a9.932,9.932,0,0,1-8.81,4.811,9.051,9.051,0,0,1-6.23-2.133,7.787,7.787,0,0,1-.06-11.188,9.027,9.027,0,0,1,6.29-2.111,10.8,10.8,0,0,1,6.77,2.542c0.09-1.028.14-2.178,0.14-3.449,0-4.3-.57-7.36-1.69-9.191a5.894,5.894,0,0,0-5.45-2.746,11.057,11.057,0,0,0-5.61,1.861,45.2,45.2,0,0,0-7.79,6.626v21.151h-4.32V417.722q-2.685,3-6.63,7.806l-3.18-2.9q5.535-6.809,9.81-11.347v-4.72h-8.86V402.7Zm32.63,21.922a12.089,12.089,0,0,0-3.03-2.5,6.255,6.255,0,0,0-2.79-.59,4.652,4.652,0,0,0-3.14,1.021,3.476,3.476,0,0,0,0,5.22,4.647,4.647,0,0,0,3.14,1.021C1722.98,428.8,1724.91,427.405,1726.01,424.621Z" transform="translate(-1148 -269)"/>
  <path id="Shape-3" data-name="Shape" class="cls-2" d="M1329.45,347.676h-8.17l-10.76-13.587v13.587h-6.23V282.54a35.573,35.573,0,0,1,6.21.873c10.87,3,18.95,13.394,18.95,25.827a27.2,27.2,0,0,1-12.81,23.192Zm-18.95-19.418a20.578,20.578,0,0,0,0-38.037v38.037h0Zm26.65,19.418V334.77h-3.07v-6.112h3.07V295.949h18.56v6.113h-12.35v26.6h15.41v6.112h-15.4v6.793h12.35v6.113h-18.57Zm46.12,0V334.77h-12.35v12.906h-6.21V334.77h-3.06v-6.112h3.06v-17.2c0-5.24.28-7.371,1.4-9.606a12.347,12.347,0,0,1,21.06-1.643c1.77,2.724,2.33,5.047,2.33,10.775v17.672h3.06v6.112h-3.06v12.906h-6.23Zm0-39.413c0-4.366-2.32-7.178-5.94-7.178-3.81,0-6.41,2.915-6.41,7.281v20.292h12.35v-20.4Zm15.22,39.413V295.934h6.21v45.615h12.35v6.112h-18.56v0.015Zm60.64-24.924a175.63,175.63,0,0,1-21.44,8.821l2.38-9.59-16.03.769a213.653,213.653,0,0,1,22.42-10.774l-2.3,11.529Zm24.57-30.8a27.361,27.361,0,0,0,0,46.8,46.676,46.676,0,0,0,6.12,2.62v6.705a28.894,28.894,0,0,1-6.12-2.043,34.019,34.019,0,0,1,0-61.436,48.678,48.678,0,0,1,6.12-2.042v6.6A41.539,41.539,0,0,0,1483.7,291.953Zm61.82,29.808c0,14.756-11.43,26.7-25.53,26.7s-25.53-11.958-25.53-26.7c0-14.756,11.42-26.7,25.52-26.7S1545.52,307.005,1545.52,321.761Zm-44.84,0c0,11.159,8.63,20.187,19.31,20.187s19.31-9.028,19.31-20.187-8.62-20.188-19.31-20.188S1500.68,310.586,1500.68,321.761Zm70.45,25.915V318.549l-12.25-13.779v42.906h-6.21V295.934h6.21l12.25,13.69v-13.69h6.21v51.742h-6.21Zm33.41,0V318.549l-12.25-13.779v42.906h-6.21V295.934h6.21l12.25,13.69v-13.69h6.21v51.742h-6.21Zm15.22,0V334.77h-3.07v-6.112h3.07V295.949h18.56v6.113h-12.35v26.6h15.41v6.112h-15.41v6.793h12.35v6.113h-18.56Zm25.71-25.915c0-14.46,11.23-26.212,25.15-26.212v6.5c-10.49,0-18.92,8.836-18.92,19.7,0,10.967,8.44,19.8,18.92,19.8v6.5C1656.7,348.061,1645.47,336.309,1645.47,321.761Zm37.03,25.915V302.047h-9.29v-6.113H1698v6.113h-9.29v45.614h-6.21v0.015ZM1233.4,269c-27.84,0-50.4,20.8-50.4,46.452s22.56,46.453,50.4,46.453a53.851,53.851,0,0,0,20.27-3.914c5.78,5.121,15.64,5.471,24.24.271a27.255,27.255,0,0,0,5.77-4.657c-4.02.08-8.7-2.785-12.28-7.644a44.233,44.233,0,0,0,12.39-30.509C1283.79,289.8,1261.23,269,1233.4,269Zm38.49,48.809s-24.66,12.29-47.17,19.406l5.25-21.088-35.27,1.682s25.73-14.447,49.32-23.719l-5.04,25.379Z" transform="translate(-1148 -269)"/>
</svg>
