<svg width="80" height="80" viewBox="0 0 80 80" fill="none" xmlns="http://www.w3.org/2000/svg">
<path fill-rule="evenodd" clip-rule="evenodd" d="M64 33.9C68.9 37.1 72 42 72 47.5C72 51.5 68 57.5 68 57.5L72 69.7L58.6 63.8C58.6 63.8 55.2 65 50.5 65C42.7 65 36 61.7 32.2 56.7C28.1 56.1 24 54.9 24 54.9L8 62.3L13.5 47.6C13.5 47.6 8 39.8 8 34C8 21.3 20.5 11 36 11C51.4 11 63.9 21.2 64 33.9ZM23.9 52.8L24.6 53C24.6 53 27.5 53.8 30.8 54.4C29.6 52.3 29 50 29 47.5C29 37.8 38.6 30 50.5 30C54.7 30 58.6 31 61.9 32.7C61.1 21.7 49.8 13 36 13C21.7 13 10 22.4 10 34C10 36 10.9 38.8 12.6 41.9C13.9 44.4 15.2 46.3 15.2 46.3L15.8 47.2L15.4 48.2L11.6 58.4L23.2 53.1L23.9 52.8ZM59.4 62L68.7 66.1L66.1 58.1L65.8 57.2L66.3 56.4C67.3 55 70 50.3 70 47.5C70 39 61.3 32 50.5 32C39.7 32 31 39 31 47.5C31 56 39.7 63 50.5 63.1C54.8 63.1 57.9 62 57.9 62L58.7 61.7L59.4 62ZM43.4 47.9C43 48.4 42.5 49 41.9 49.7L39.7999 52.2999H45V54.2999H35.7L40.5 48.5C41 47.9 41.4 47.4 41.7 47C42 46.5 42.2 46.2 42.4 45.9C42.7 45.4 42.9 44.9 42.9 44.4C42.9 43.8 42.7 43.2 42.2 42.7999C41.7 42.2999 41.2 42.1 40.5 42.1C39.0999 42.1 38.2999 42.8999 38.1 44.5999H36C36.2999 41.6999 37.8 40.2 40.4 40.2C41.7 40.2 42.6999 40.5999 43.5999 41.3999C44.5 42.2 44.9 43.2 44.9 44.4C44.9 45.1 44.7 45.8999 44.2999 46.5999C44.2606 46.6589 44.2174 46.7257 44.1704 46.7986L44.1703 46.7986L44.1499 46.8303C43.96 47.1247 43.71 47.5123 43.4 47.9ZM55.5 39.3L46.6 52.3H53.4V54.3H55.5V52.3H57V50.4001H55.5V39.3ZM50.2 50.3L53.4 45.6V50.3H50.2ZM63.4 45.2C64.4 45.2 65.2 45.6 65.8 46.2C66.3 46.7 66.6 47.6 66.5 48.8V54.2H64.5V49C64.5 48.3 64.3 47.8 64.1 47.5C63.9 47.2 63.5 47 62.9 47C62.2 47 61.7 47.3 61.4 47.7C61.1 48.2 61 48.9 61 50V54.2H59V39H61V46.2C61.7 45.5 62.5 45.2 63.4 45.2Z" fill="url(#paint0_linear)"/>
<defs>
<linearGradient id="paint0_linear" x1="72" y1="40.3498" x2="8" y2="40.3498" gradientUnits="userSpaceOnUse">
<stop stop-color="#DD43F1"/>
<stop offset="1" stop-color="#5F78FF"/>
</linearGradient>
</defs>
</svg>
