<svg width="80" height="80" viewBox="0 0 80 80" fill="none" xmlns="http://www.w3.org/2000/svg">
<path d="M25.5 79.3564C21.2 80.4564 16.8 77.9564 15.7 73.6564L2 22.4564H2.1C1.6 18.4564 4.1 14.6564 8 13.6564L54.3 1.25637C58.2 0.25637 62.3 2.25637 63.8 5.95637H63.9L77.6 57.1564C78.7 61.4564 76.2 65.8564 71.9 66.9564L25.5 79.3564ZM17.7 73.1564C18.6 76.3564 21.8 78.2564 25.1 77.3564L71.4 64.9564C74.6 64.0564 76.5 60.8564 75.6 57.5564L62.4 8.35637L4.5 23.9564L17.7 73.1564ZM61.8 6.45637C60.6 3.75637 57.6 2.35637 54.8 3.15637L8.4 15.5564C5.6 16.3564 3.8 19.0564 4 21.9564L61.8 6.45637ZM57.3 62.5564L54 50.1564L60.8 48.3564L61.3 50.1564L56.3 51.4564L57.1 54.4564L61.9 53.1564L62.4 54.9564L57.6 56.2564L58.7 60.3564L63.7 59.0564L64.2 60.8564L57.3 62.5564ZM48 65.0564L44.7 52.6564L51.5 50.8564L52 52.6564L47 53.9564L47.8 56.9564L52.6 55.6564L53.1 57.4564L48.3 58.7564L49.4 62.8564L54.4 61.5564L54.9 63.3564L48 65.0564ZM43.8 66.1564L38.9 62.0564L38.6 62.1564L40 67.2564L38.1 67.7564L34.8 55.3564L37 54.7564C38.2 54.3564 39.6 54.2564 40.8 54.7564C41.8 55.2564 42.5 56.0564 42.7 57.1564C42.9 57.9564 42.9 58.8564 42.6 59.6564C42.3 60.4564 41.7 61.0564 40.9 61.3564L46.1 65.5564L43.8 66.1564ZM38.2 60.5564L38.8 60.3564C40.6 59.8564 41.3 58.9564 40.9 57.6564C40.6 56.3564 39.5 55.9564 37.8 56.4564L37.1 56.6564L38.2 60.5564ZM29.7 69.9564L26.4 57.5564L32.6 55.8564L33.1 57.6564L28.8 58.8564L29.6 61.8564L33.8 60.7564L34.3 62.5564L30 63.5564L31.6 69.4564L29.7 69.9564ZM26.9 48.5564L21.7 45.5564L22.7 43.8564L27.9 46.8564L34.9 34.7564L36.6 35.7564L28.6 49.6564L26.9 48.5564ZM45.1 44.0564L44.6 42.1564L60 38.0564L60.5 39.9564L45.1 44.0564ZM43.8 39.2564L43.3 37.3564L58.8 33.2564L59.3 35.1564L43.8 39.2564ZM23 34.0564L17.8 31.0564L18.8 29.3564L24 32.3564L31 20.2564L32.7 21.2564L24.7 35.1564L23 34.0564ZM41.2 29.5564L40.7 27.6564L56.2 23.5564L56.7 25.4564L41.2 29.5564ZM39.9 24.7564L39.4 22.8564L54.9 18.7564L55.4 20.6564L39.9 24.7564Z" fill="url(#paint0_linear)"/>
<defs>
<linearGradient id="paint0_linear" x1="77.8589" y1="40.3074" x2="2" y2="40.3074" gradientUnits="userSpaceOnUse">
<stop stop-color="#DD43F1"/>
<stop offset="1" stop-color="#5F78FF"/>
</linearGradient>
</defs>
</svg>
