<svg width="80" height="80" viewBox="0 0 80 80" fill="none" xmlns="http://www.w3.org/2000/svg">
<path fill-rule="evenodd" clip-rule="evenodd" d="M28 19C28 14 24 10 19 10C14 10 10 14 10 19C10 22.4 11.5 23.9 13.8 26.2L13.8 26.2C15.5 27.9 17.5 29.9 19 33C20.5 29.9 22.5 27.9 24.2 26.2L24.2 26.2L24.2 26.2C26.5 23.9 28 22.4 28 19ZM8 19C8 12.9 12.9 8 19 8C25.1 8 30 12.9 30 19C30 23.2734 27.9709 25.2922 25.6255 27.6258C23.0314 30.2067 20.0504 33.1727 19 40C17.9496 33.1727 14.9686 30.2067 12.3745 27.6258C10.0291 25.2922 8 23.2734 8 19ZM70 51C70 46 66 42 61 42C56 42 52 46 52 51C52 54.4 53.5 55.9 55.8 58.2C57.5 59.9 59.5 61.9 61 65C62.5 61.9 64.5 59.9 66.2 58.2C68.5 55.9 70 54.4 70 51ZM50 51C50 44.9 54.9 40 61 40C67.1 40 72 44.9 72 51C72 55.2734 69.9709 57.2922 67.6255 59.6258C65.0314 62.2067 62.0504 65.1727 61 72C59.9496 65.1727 56.9686 62.2067 54.3745 59.6258C52.0291 57.2922 50 55.2734 50 51ZM19 17C20.1 17 21 17.9 21 19C21 20.1 20.1 21 19 21C17.9 21 17 20.1 17 19C17 17.9 17.9 17 19 17ZM19 15C16.8 15 15 16.8 15 19C15 21.2 16.8 23 19 23C21.2 23 23 21.2 23 19C23 16.8 21.2 15 19 15ZM63 51C63 49.9 62.1 49 61 49C59.9 49 59 49.9 59 51C59 52.1 59.9 53 61 53C62.1 53 63 52.1 63 51ZM57 51C57 48.8 58.8 47 61 47C63.2 47 65 48.8 65 51C65 53.2 63.2 55 61 55C58.8 55 57 53.2 57 51ZM15.7677 56.0215L60.8 26H32C31.4 26 31 25.6 31 25C31 24.4 31.4 24 32 24H64C64.3449 24 64.6237 24.1322 64.7985 24.3586C64.8352 24.4015 64.8692 24.4486 64.9 24.5C65.2 25 65.1 25.6 64.6 25.9L19.45 56H48C48.6 56 49 56.4 49 57C49 57.6 48.6 58 48 58H16C15.4 58 15 57.6 15 57C15 56.4813 15.299 56.112 15.7677 56.0215Z" fill="url(#paint0_linear)"/>
<defs>
<linearGradient id="paint0_linear" x1="72" y1="39.9998" x2="8" y2="39.9998" gradientUnits="userSpaceOnUse">
<stop stop-color="#DD43F1"/>
<stop offset="1" stop-color="#5F78FF"/>
</linearGradient>
</defs>
</svg>
