<svg width="120" height="120" viewBox="0 0 120 120" fill="none" xmlns="http://www.w3.org/2000/svg">
<path fill-rule="evenodd" clip-rule="evenodd" d="M32 22C37.5 22 42 26.5 42 32C42 37.5 37.5 42 32 42C26.5 42 22 37.5 22 32C22 26.5 26.5 22 32 22ZM32 20C25.4 20 20 25.4 20 32C20 35.8093 21.7989 39.2189 24.5891 41.4212C21.6957 47.0159 20 53.3084 20 60C20 82.1 37.9 100 60 100C82.1 100 100 82.1 100 60C100 37.9 82.1 20 60 20C53.3084 20 47.0159 21.6957 41.4212 24.5891C39.2189 21.7989 35.8093 20 32 20ZM42.5393 26.2796C43.47 27.9826 44 29.9324 44 32C44 38.6 38.6 44 32 44C29.9323 44 27.9824 43.47 26.2794 42.5391C23.4926 47.829 22 53.7155 22 60C22 81 39 98 60 98C81 98 98 81 98 60C98 39 81 22 60 22C53.7159 22 47.7302 23.592 42.5393 26.2796ZM40 52C44.4 52 48.3 54.9 49.5 59C48.9625 59.2932 48.2579 59.6341 47.5029 59.9994C46.7126 60.3818 45.8671 60.7909 45.1 61.2L39.6 64L45.7 65C46.18 65.08 46.692 65.16 47.204 65.24L47.2046 65.2401C47.9724 65.3601 48.7402 65.48 49.4 65.6C47.9 69.4 44.3 72 40.1 72C34.6 72 30.1 67.5 30.1 62C30.1 56.5 34.5 52 40 52ZM40 50C33.4 50 28 55.4 28 62C28 68.6 33.4 74 40 74C45.9 74 50.8 69.7 51.8 64.1C52 64 46 63 46 63C46 63 51.9 60 51.8 60C50.9 54.3 46 50 40 50ZM52.5 60.1001L53.5 61.9001L58.5 58.9001L57.5 57.1001L52.5 60.1001ZM57.5 68.9001L52.5 65.9001L53.5 64.1001L58.5 67.1001L57.5 68.9001ZM90 56C90 50.5 85.5 46 80 46C75.6 46 71.7 48.9 70.6 53C71.3226 53.3284 72.304 53.8294 73.3459 54.3613C73.8902 54.6392 74.451 54.9255 75 55.2L80.5 58L74.4 59L74.3995 59.0001L74.399 59.0001C73.0994 59.2001 71.7997 59.4001 70.7 59.6C72.1 63.4 75.8 66 80 66C85.5 66 90 61.5 90 56ZM68.2 54C69.1 48.3 74 44 80 44C86.6 44 92 49.4 92 56C92 62.6 86.6 68 80 68C74.1 68 69.2 63.7 68.2 58.1C68 58 74 57 74 57C74 57 68.1 54 68.2 54ZM66.5 55.9001L61.5 52.9001L62.5 51.1001L67.5 54.1001L66.5 55.9001ZM61.5 61.1001L62.5 62.9001L67.5 59.9001L66.5 58.1001L61.5 61.1001ZM31.6 32.3001V30.4001C32.6 30.4001 33.2 30.3001 33.5 30.1001C34.1 29.7001 34.4 29.1001 34.4 28.3001C34.4 27.7001 34.2 27.1001 33.8 26.7001C33.4 26.3001 32.8 26.1001 32.1 26.1001C31.5 26.1001 31 26.3001 30.6 26.6001C30.3 26.9001 30 27.4001 29.9 28.2001H27.7C27.9 26.8001 28.4 25.7001 29.1 25.1001C29.8 24.5001 30.8 24.1001 32.2 24.1001C33.5 24.1001 34.6 24.5001 35.4 25.3001C36.2 26.1001 36.6 27.1001 36.6 28.3001C36.6 29.7001 36.1 30.8001 35 31.5001C36.2 32.2001 36.9 33.4001 36.9 35.1001C36.9 36.5001 36.4 37.6001 35.5 38.4001C34.6 39.2001 33.4 39.7001 32 39.7001C30.2 39.7001 28.8 39.0001 28 37.7001C27.6 37.1001 27.4 36.4001 27.3 35.4001H29.5C29.6 36.1001 29.9 36.7001 30.4 37.1001C30.9 37.5001 31.4 37.7001 32.2 37.7001C32.9 37.7001 33.5 37.5001 34 37.0001C34.5 36.5001 34.7 35.9001 34.7 35.1001C34.7 34.1001 34.3 33.4001 33.6 32.9001C33.1 32.4001 32.5 32.3001 31.6 32.3001Z" fill="url(#paint0_linear)"/>
<defs>
<linearGradient id="paint0_linear" x1="100" y1="59.9998" x2="20" y2="59.9998" gradientUnits="userSpaceOnUse">
<stop stop-color="#DD43F1"/>
<stop offset="1" stop-color="#5F78FF"/>
</linearGradient>
</defs>
</svg>
