<svg width="120" height="120" viewBox="0 0 120 120" fill="none" xmlns="http://www.w3.org/2000/svg">
<path fill-rule="evenodd" clip-rule="evenodd" d="M32 22C37.5 22 42 26.5 42 32C42 37.5 37.5 42 32 42C26.5 42 22 37.5 22 32C22 26.5 26.5 22 32 22ZM32 20C25.4 20 20 25.4 20 32C20 35.8093 21.7989 39.2189 24.5891 41.4212C21.6957 47.0159 20 53.3084 20 60C20 82.1 37.9 100 60 100C82.1 100 100 82.1 100 60C100 37.9 82.1 20 60 20C53.3084 20 47.0159 21.6957 41.4212 24.5891C39.2189 21.7989 35.8093 20 32 20ZM42.5391 26.2794C43.47 27.9824 44 29.9323 44 32C44 38.6 38.6 44 32 44C29.9323 44 27.9824 43.47 26.2794 42.5391C23.4926 47.829 22 53.7155 22 60C22 81 39 98 60 98C81 98 98 81 98 60C98 39 81 22 60 22C53.7155 22 47.829 23.4926 42.5391 26.2794ZM31.4 37.2H37V39.3H26.9L32.1 33C32.2972 32.7634 32.4788 32.5268 32.651 32.3025L32.651 32.3025L32.651 32.3024L32.6511 32.3024L32.6511 32.3023L32.6511 32.3023L32.6512 32.3023L32.6512 32.3022L32.6512 32.3022C32.9156 31.9577 33.1578 31.6422 33.4 31.4C33.8 31 34 30.6 34.2 30.2C34.6 29.6 34.8 29 34.8 28.5C34.8 27.8 34.6 27.2 34.1 26.7C33.6 26.2 33 26 32.2 26C30.7 26 29.8 26.9 29.6 28.7H27.4C27.7 25.6 29.3 24 32.2 24C33.6 24 34.7 24.4 35.7 25.3C36.6 26.2 37.1 27.3 37.1 28.5C37.1 29.3 36.9 30.1 36.4 30.9C36.2 31.3 35.9 31.8 35.4 32.4L35.4 32.4C34.9 33 34.4 33.6 33.8 34.4L31.4 37.2ZM51.2 76.6L51.2159 76.6157L51.2376 76.6364C51.2844 76.6987 51.3387 76.7541 51.4 76.8001C51.4781 76.8391 51.5562 76.8781 51.6342 76.9112C51.7426 76.9616 51.8571 76.9947 51.972 76.9994C51.9813 76.9999 51.9907 77.0001 52 77.0001C52.1414 77.0001 52.2828 76.9778 52.4138 76.9229C52.4759 76.9096 52.5379 76.9 52.6 76.9C52.8443 76.7534 52.9931 76.5352 53.0464 76.292L84.8 36.6001C85.1 36.2001 85 35.5001 84.6 35.2001C84.2 34.9001 83.5 35.0001 83.2 35.4001L52.0909 74.2864L36.9 51.5C36.6 51 36 50.9 35.5 51.2C35 51.5 34.9 52.1 35.2 52.6L51.2 76.6ZM58.2 76.8L57.5 78H58.9V85.1001H60.2V76.8H58.2ZM65.5 83.9H68.6V85.0999H63L65.9 81.5999C66.2 81.3 66.4 81 66.6 80.7L66.6 80.7C66.6764 80.5854 66.7382 80.4854 66.791 80.3999C66.8764 80.2617 66.9382 80.1618 67 80.0999C67.2 79.7999 67.3 79.5 67.3 79.2C67.3 78.7999 67.2 78.5 66.9 78.2C66.6 77.9 66.3 77.7999 65.9 77.7999C65.1 77.7999 64.6 78.2999 64.5 79.2999H63.3C63.5 77.5999 64.4 76.7 65.9 76.7C66.7 76.7 67.3 76.9 67.8 77.4C68.3 77.9 68.6 78.5 68.6 79.2C68.6 79.7 68.5 80.0999 68.2 80.5C68.1 80.7 67.9 81 67.7 81.2999C67.5 81.5999 67.2 82 66.8 82.4L65.5 83.9ZM72.3 80.0999V81.2C72.8 81.2 73.2 81.3 73.5 81.4C73.9 81.6 74.1 82 74.1 82.5999C74.1 83 74 83.2999 73.7 83.5999C73.4 83.8999 73.1 84 72.7 84C72.3 84 72 83.9 71.7 83.7C71.4 83.5 71.3 83.2 71.2 82.7999H70C70.1 83.3999 70.2 83.7999 70.4 84.0999C70.9 84.7999 71.6 85.2 72.6 85.2C73.4 85.2 74 85 74.5 84.5C75.1 84.1 75.3 83.4 75.3 82.7C75.3 81.7999 75 81.1 74.3 80.7C74.9 80.2 75.2 79.7 75.2 78.9C75.2 78.3 75 77.7 74.5 77.2999C74 76.8999 73.4 76.7 72.7 76.7C72 76.7 71.4 76.7999 71 77.2C70.6 77.5 70.3 78.1 70.2 78.9H71.4C71.5 78.5 71.6 78.2 71.8 78C72 77.7999 72.3 77.7 72.6 77.7C73 77.7 73.3 77.7999 73.5 78C73.8 78.2999 73.9 78.5 73.9 78.9C73.9 79.4 73.7 79.7 73.4 79.9C73.2 80 72.8 80.0999 72.3 80.0999ZM81.7 82.7999H82.6V83.9H81.7V85.0999H80.4V83.9H76.3L81.6 76.2L81.7 82.7999ZM80.5 82.7999V80L78.6 82.7999H80.5Z" fill="url(#paint0_linear)"/>
<defs>
<linearGradient id="paint0_linear" x1="100" y1="59.9998" x2="20" y2="59.9998" gradientUnits="userSpaceOnUse">
<stop stop-color="#DD43F1"/>
<stop offset="1" stop-color="#5F78FF"/>
</linearGradient>
</defs>
</svg>
