<?xml version="1.0" standalone="no"?>
<!DOCTYPE svg PUBLIC "-//W3C//DTD SVG 1.1//EN" "http://www.w3.org/Graphics/SVG/1.1/DTD/svg11.dtd" >
<svg xmlns="http://www.w3.org/2000/svg">
<defs>
  <font id="glyphs" horiz-adv-x="640">
    <font-face font-family="glyphs"
      units-per-em="1024" ascent="1024"
      descent="0" />
    <missing-glyph horiz-adv-x="0" />
    <glyph glyph-name="gear"
      unicode="&#x2699;"
      horiz-adv-x="1024" d="M1004.65 409.394L926.638 471.004C914.208 480.8200000000001 907.3079999999998 495.862 907.302 511.7C907.302 511.8680000000001 907.302 512.0360000000001 907.302 512.2040000000001C907.2739999999998 528.076 914.182 543.1600000000001 926.6359999999999 552.9960000000001L1004.6499999999997 614.6080000000002C1022.5159999999998 628.7180000000001 1028.8359999999998 652.9780000000001 1020.124 674.0100000000001L985.8559999999998 756.7420000000001C977.1439999999998 777.7740000000001 955.522 790.4620000000001 932.912 787.806L834.18 776.2060000000001C818.4179999999999 774.354 802.8679999999999 780.138 791.664 791.378C791.5459999999999 791.498 791.428 791.6160000000001 791.31 791.734C780.116 802.9380000000001 774.358 818.4540000000001 776.2059999999999 834.1840000000001L787.8039999999999 932.91C790.4599999999998 955.52 777.7739999999999 977.142 756.7419999999998 985.854L674.008 1020.122C652.976 1028.834 628.716 1022.514 614.606 1004.65L552.996 926.64C543.18 914.21 528.136 907.31 512.298 907.304C512.13 907.304 511.962 907.304 511.794 907.304C495.924 907.276 480.84 914.184 471.004 926.638L409.394 1004.65C395.284 1022.516 371.024 1028.834 349.99 1020.122L267.26 985.856C246.228 977.144 233.54 955.522 236.196 932.91L247.794 834.178C249.646 818.4159999999999 243.866 802.866 232.624 791.664C232.5060000000001 791.546 232.3880000000001 791.428 232.2680000000001 791.308C221.064 780.112 205.548 774.354 189.816 776.204L91.09 787.802C68.48 790.4580000000001 46.858 777.772 38.146 756.74L3.878 674.008C-4.834 652.976 1.486 628.716 19.35 614.606L97.362 552.996C109.792 543.1800000000001 116.692 528.1379999999999 116.698 512.3C116.698 512.132 116.698 511.966 116.698 511.798C116.726 495.928 109.818 480.8440000000001 97.364 471.008L19.35 409.394C1.484 395.284 -4.834 371.024 3.878 349.992L38.146 267.262C46.858 246.2299999999999 68.482 233.5419999999999 91.09 236.198L189.822 247.796C205.586 249.6479999999999 221.134 243.866 232.338 232.6239999999999C232.456 232.5059999999999 232.574 232.3859999999999 232.694 232.2679999999999C243.888 221.0619999999999 249.646 205.5479999999999 247.798 189.8159999999999L236.2 91.088C233.544 68.478 246.23 46.856 267.264 38.144L349.996 3.876C371.028 -4.836 395.288 1.4839999999999 409.398 19.348L471.006 97.358C480.8219999999999 109.7879999999999 495.866 116.688 511.702 116.6959999999999C511.87 116.6959999999999 512.038 116.6959999999999 512.204 116.6959999999999C528.0759999999999 116.7239999999999 543.16 109.8159999999999 552.996 97.362L614.608 19.348C628.718 1.482 652.978 -4.838 674.01 3.876L756.742 38.144C777.774 46.856 790.462 68.48 787.8059999999999 91.088L776.2059999999999 189.8199999999999C774.3539999999999 205.5819999999999 780.1359999999999 221.132 791.3779999999999 232.334C791.496 232.452 791.616 232.572 791.7339999999999 232.69C802.9379999999999 243.8839999999999 818.454 249.642 834.184 247.794L932.912 236.1960000000001C955.522 233.5400000000001 977.146 246.226 985.8559999999998 267.2580000000001L1020.124 349.9880000000001C1028.836 371.024 1022.516 395.284 1004.65 409.394zM562.584 364.6040000000001C483.2239999999999 331.7320000000001 392.24 369.418 359.37 448.778C326.498 528.138 364.184 619.12 443.544 651.994C522.904 684.866 613.8879999999999 647.1800000000001 646.76 567.818C679.63 488.458 641.944 397.476 562.584 364.6040000000001z" />
    <glyph glyph-name="preset02"
      unicode="&#xE002;"
      horiz-adv-x="1024" d="M237.4 325C212.8 325 192 316.4 174.8 299.2000000000001C157.6 282 149 261.2000000000001 149 236.6C149 212 157.6 191.2000000000001 174.8 174C192 156.8 212.8 148.2000000000001 237.4 148.2000000000001C261.6 148.2000000000001 282.4 156.8000000000001 299.8 174C317.2 191.2000000000001 325.8 212 325.8 236.6C325.8 261.2000000000001 317.2 282 299.8 299.2000000000001C282.4 316.2000000000001 261.6 325 237.4 325zM217.8 511.6C217.8 538.6 208.2 561.8 189 581C169.8 600.2 146.6 609.8 119.6 609.8C92.6 609.8 69.4 600.2 50.2 581C31 561.8 21.4 538.6 21.4 511.6C21.4 484.6 31 461.4 50.2 442.2000000000001C69.4 423 92.6 413.4000000000001 119.6 413.4000000000001C146.6 413.4000000000001 169.8 423.0000000000001 189 442.2000000000001C208.2 461.4 217.8 484.6 217.8 511.6zM787.6 737.4C801 737.4 812.6 742.2 822.2 751.8C831.8000000000001 761.4 836.6 773 836.6 786.4C836.6 800 831.8000000000001 811.4 822.2 821C812.6 830.5999999999999 801 835.4 787.6 835.4C774 835.4 762.6 830.5999999999999 753 821C743.4 811.4 738.6 799.8 738.6 786.4C738.6 772.8 743.4 761.4 753 751.8C762.4 742.2 774 737.4 787.6 737.4zM237.4 894.6C207.6 894.6 182 884 161 863C139.8 842 129.4 816.4 129.4 786.6C129.4 756.8 140 731.2 161 710.2C182 689.2 207.6 678.5999999999999 237.4 678.5999999999999S292.8 689.2 313.8 710.2C334.8 731.2 345.4000000000001 756.8 345.4000000000001 786.6C345.4000000000001 816.4 334.8 842 313.8 863C292.8 884.2 267.2 894.6 237.4 894.6zM947.2 553.2C935.8 564.5999999999999 921.8 570.4 905.4 570.4C889.0000000000001 570.4 875.2 564.5999999999999 863.6000000000001 553.2C852.2000000000002 541.8 846.4000000000001 527.8 846.4000000000001 511.4C846.4000000000001 495 852.2 481 863.6000000000001 469.6C875.0000000000001 458.2 889.0000000000001 452.4 905.4 452.4C921.8 452.4 935.6000000000003 458.1999999999999 947.2 469.6C958.6 481 964.4 495 964.4 511.4C964.4 528 958.6 541.8 947.2 553.2zM787.6 305.2000000000001C768.8000000000001 305.2000000000001 752.6 298.4000000000001 739 285C725.6 271.6 718.8 255.4 718.8 236.4C718.8 217.6 725.5999999999999 201.4 739 187.8C752.6 174.1999999999999 768.6 167.5999999999999 787.6 167.5999999999999C806.4 167.5999999999999 822.6 174.3999999999999 836.2 187.8C849.8000000000001 201.4 856.4000000000001 217.4 856.4000000000001 236.4C856.4000000000001 255.2 849.6000000000001 271.4 836.2 285C822.6 298.6 806.4 305.2000000000001 787.6 305.2000000000001zM512.4 197.2000000000001C490.8 197.2000000000001 472.2 189.6 456.8 174.2000000000001C441.4 158.8000000000001 433.8 140.4000000000001 433.8 118.6S441.4 78.4 456.8 63C472.1999999999999 47.6 490.6 40 512.4 40C534 40 552.6 47.6 568 63C583.4 78.4 591 96.8 591 118.6S583.4 158.8000000000001 568 174.2000000000001C552.6 189.6 534.2 197.2000000000001 512.4 197.2000000000001zM512.4 1022.4C479.6 1022.4 451.8 1011 428.8 988C405.8 965 394.4 937.2 394.4 904.4C394.4 871.6 405.8 843.8 428.8 821C451.8 798 479.6 786.6 512.4 786.6C545.1999999999999 786.6 573 798 595.8 821C618.8 844 630.1999999999999 871.8 630.1999999999999 904.4C630.1999999999999 937.2 618.8 965 595.8 988C573 1011 545.2 1022.4 512.4 1022.4z" />
    <glyph glyph-name="preset03"
      unicode="&#xE003;"
      horiz-adv-x="1024" d="M830.6 816C755 894.6 649.6 945.2 533 950C503.6 951.2 479 928.4 477.8 899C476.6 869.6 499.4 845 528.8 843.8C617.4 840.2 696.5999999999999 802 754.1999999999999 742.4C811.8 682.5999999999999 846.9999999999999 601.8 846.9999999999999 512.2C846.9999999999999 420.4 809.9999999999999 337.8 749.7999999999998 277.4C689.5999999999998 217.1999999999999 606.7999999999998 180.1999999999999 514.9999999999998 180.1999999999999C423.1999999999998 180.1999999999999 340.3999999999998 217.1999999999999 280.1999999999998 277.4C219.9999999999998 337.6 182.9999999999998 420.2000000000001 182.9999999999998 512.2C182.9999999999998 518.5999999999999 183.1999999999998 525 183.5999999999998 531.4L246.7999999999998 500.1999999999999C253.5999999999998 496.8 261.5999999999998 496.8 267.7999999999998 499.9999999999999C273.9999999999998 503.3999999999999 277.7999999999998 509.5999999999999 277.5999999999998 516.5999999999999L271.3999999999998 794.5999999999999C271.1999999999998 802.5999999999999 265.9999999999999 810.1999999999999 258.1999999999998 813.9999999999999C250.3999999999998 817.8 241.1999999999998 817.3999999999999 234.7999999999998 812.5999999999999L10.4 648.6C4.8 644.4000000000001 2 637.8 3.2 630.8C4.4 623.8 9.2 617.6 16.2 614.2L82.4 581.4C78.8 558.8 76.8 535.8 76.8 512.2C76.8 391.4 126 281.4 205.2 202.4C284.4000000000001 123.1999999999999 394.2000000000001 74 515 74C635.8 74 745.6 123.2000000000001 824.8 202.4C904 281.6 953.2 391.4 953.2 512.2C953.2 630 906.4 737.4 830.6 816z" />
    <glyph glyph-name="external"
      unicode="&#x2197;"
      horiz-adv-x="1024" d="M1024 1024H304V720H0V0H720V304H1024V1024zM600 120H120V600H304V304H600V120zM600 424H424V600H600V424zM904 424H720V720H424V904H904V424z" />
    <glyph glyph-name="rightwards"
      unicode="&#x27A1;"
      horiz-adv-x="1024" d="M1024 510L630.2 903.8V667.4H0V352.4H630.2V116L1024 510z" />
    <glyph glyph-name="black-rightwards-arrowhead"
      unicode="&#x27A4;"
      horiz-adv-x="1024" d="M977.2 466.8C1026.2 491.5999999999999 1026.2 532.1999999999999 977.2 557.1999999999999L81 1010.8C31.8 1035.6 1 1012 12.4 958.2L76.4 655.2C87.8 601.4 142 554.6 196.8 551.2L726.8 518.2C781.5999999999999 514.8 781.5999999999999 509.2 726.8 505.8L196.8 472.8C142 469.4 87.6 422.5999999999999 76.4 368.8L12.3999999999999 65.8C0.9999999999999 12 31.8 -11.8 80.9999999999999 13.1999999999999L977.2 466.8z" />
    <glyph glyph-name="brand-logo"
      unicode="&#xF000;"
      horiz-adv-x="1024" d="M512 981.8C229.2 981.8 0 771.6 0 512.4C0 253.2000000000001 229.2 43 512 43C585.2 43 655 57.2000000000001 718 82.6C776.8 30.8000000000001 876.8 27.4 964.2 79.8000000000001C986.4 93.2000000000001 1006.2 109.2000000000001 1022.8 126.8000000000001C982.0000000000002 126.0000000000001 934.4 155.0000000000001 898.0000000000001 204.0000000000001C976.4 286.4000000000001 1023.8 394.2000000000001 1023.8 512.2C1024 771.6 794.8 981.8 512 981.8zM903.2 488.6C903.2 488.6 652.6 364.4 424.0000000000001 292.6L477.4 505.6L119.0000000000001 488.6C119.0000000000001 488.6 380.4000000000001 634.6 620 728.2L568.6 472L903.2 488.6z" />
    <glyph glyph-name="alarm-clock-round"
      unicode="&#xF001;"
      horiz-adv-x="1024" d="M298.884 929.708C269.2800000000001 972.102 219.946 999.678 164.35 999.678C73.768 999.678 0 925.9 0 835.096C0 779.484 27.592 730.396 69.962 700.794C117.712 800.794 198.882 881.958 298.884 929.708zM859.428 999.678C802.692 999.678 752.708 970.75 723.106 927.022C821.764 878.15 901.582 796.758 948.222 696.97C993.738 725.896 1024 777.0260000000001 1024 835.096C1024 925.9 950.232 999.678 859.428 999.678zM948.632 491.3440000000001C948.592 732.5240000000001 753.1859999999999 927.91 512.0239999999999 927.96C270.856 927.91 75.434 732.524 75.392 491.3440000000001C75.408 354.124 138.818 231.8380000000001 237.814 151.7960000000001L208.434 100.552C194.44 76.124 202.87 45.02 227.282 31.044C251.654 17.1 282.814 25.5559999999999 296.758 49.918L324.112 97.702C381.086 70.4400000000001 444.652 54.7480000000001 512.026 54.716C579.4 54.7480000000001 642.942 70.4400000000001 699.9159999999999 97.688L727.26 49.92C741.212 25.558 772.372 17.102 796.744 31.0459999999999C821.1560000000001 45.0219999999999 829.586 76.126 815.592 100.554L786.212 151.798C885.198 231.838 948.608 354.108 948.632 491.3440000000001zM512.024 820.31C603.044 820.294 684.954 783.602 744.648 723.9680000000001C804.2760000000001 664.284 840.966 582.364 840.99 491.3440000000001C840.966 400.326 804.274 318.4060000000001 744.648 258.7040000000001C684.9540000000001 199.0680000000001 603.044 162.3780000000001 512.024 162.3620000000001C420.998 162.3780000000001 339.086 199.1020000000001 279.376 258.7040000000001C219.75 318.4040000000001 183.05 400.3240000000001 183.034 491.3440000000001C183.05 582.364 219.75 664.2840000000001 279.376 723.9680000000001C339.086 783.602 420.998 820.294 512.024 820.31zM512.024 457.474L701.924 461.4620000000001C717.384 461.4620000000001 729.912 474.0060000000001 729.912 489.4660000000001S717.384 517.4540000000002 701.924 517.4540000000002L543.0939999999999 520.8000000000002L536.8059999999999 737.1700000000001C536.8059999999999 750.8680000000002 525.704 761.9440000000002 512.0239999999999 761.9440000000002C498.3599999999999 761.9440000000002 487.2579999999999 750.8680000000002 487.2579999999999 737.1700000000001L480.0299999999999 489.4660000000001C480.032 471.796 494.356 457.474 512.024 457.474z" />
    <glyph glyph-name="secure"
      unicode="&#xF002;"
      horiz-adv-x="1024" d="M512.002 1024L59.78 762.9259999999999C59.78 667.9739999999999 68.792 585.054 83.894 512C177.22 60.558 512.002 0 512.002 0S846.78 60.558 940.108 512C955.21 585.054 964.222 667.972 964.222 762.9259999999999L512.002 1024zM512.236 90.554C512.1659999999999 90.578 512.072 90.61 512.002 90.632V185.9759999999999V512H281.54H182.244C168.904 571.476 160.026 639.012 157.456 715.86L511.998 920.544H512.002V817.0840000000001V512H742.5419999999999H841.7919999999999C771.272 197.192 574.654 110.452 512.236 90.554z" />
    <glyph glyph-name="fashion"
      unicode="&#xF003;"
      horiz-adv-x="1024" d="M1018 707.2C1016.6 710 1006.2 730 995.2 751.4C984.8 771.5999999999999 972.2 796.2 959.8 819.8C934.2 869.4 889.6 920.6 837.8000000000001 960C786.2 999.2 734.4000000000001 1022 696.2 1022C683 1022 671.2 1013.6 667 1000.8C665.6 996.6 630 899.5999999999999 512.4 899.5999999999999S359.2 996.6 357.8 1000.6C353 1013.4 341.2 1022 328.2 1022C290 1022 238.2 999.4 186.6 960C134.6 920.4 90.2 869.4 64.4 819.8C52 796 39.2 771 28.8 750.8C18 729.8 7.6 710 6.2 707.2C-2 692.5999999999999 2.4 673.8 16.4 664.8L167.8 565.6C181.6 556.6 199.8 560.2 209.6 573.6L230.8 603.4000000000001C238.4 560 243.2 495 232.8 405.2000000000001C218 277 203 205 194.2 161.8000000000001C189 136.2000000000001 185.8 120.8000000000001 185.6 108.0000000000001C185.4 88.2000000000002 193 72.8000000000001 208.4 62.4000000000001C213.8000000000001 58.6000000000001 235.6 44.4000000000001 279.6 31.0000000000001C341.6 11.8 420 2 512 2C604 2 682.2 11.8 744.6 30.8C788.6 44.4 810.4 58.1999999999999 815.8000000000001 62.1999999999999C831.4000000000001 72.5999999999999 839.0000000000001 87.8 838.6 107.8C838.4 120.4 835.2 136.1999999999999 830 161.5999999999999C821.2 204.8 806.4 276.9999999999999 791.4 404.9999999999999C780.8 494.7999999999998 785.6 559.8 793.4 603.1999999999998L814.8 573.3999999999999C820.8 564.9999999999999 830.4 560.5999999999999 839.8 560.5999999999999C845.5999999999999 560.5999999999999 851.4 562.1999999999998 856.5999999999999 565.5999999999999L1007.9999999999998 664.7999999999998C1021.6 673.8 1026 692.6 1018 707.2zM847.6 635L814.4 681.4C819.4 700.2 823.1999999999999 714.2 825.1999999999999 720.2C826.5999999999999 724.8 827.4 727.8 827.4 732.4H765.4C765.4 736.4 757.1999999999999 709 750.4 681C713.6 584.2 724 450.6 730.1999999999999 397.2000000000001C745.5999999999999 266.2000000000001 760.5999999999999 192.4000000000001 769.5999999999999 148.4000000000001C772.8 133.6000000000001 775.5999999999999 119.4000000000001 776.5999999999999 111.4000000000001C769.3999999999999 107.2000000000001 751.9999999999999 98.4000000000001 721.8 89.6000000000001C683.4 78.4000000000001 616 65.0000000000001 512.4 65.0000000000001C340.8 65.0000000000001 265.4 101.4000000000001 248.2 111.2000000000002C249.2 119.2000000000002 252.2 133.4000000000002 255.2 148.2000000000002C264.2 192.4000000000002 279.4 266.4000000000002 294.6 397.0000000000003C300.8 450.2000000000003 311.2 583.8000000000002 274.4 681.0000000000002C267.6 708.8000000000002 259.4 736.2000000000003 259.4 732.4000000000002H197.4C197.4 727.8000000000002 198.2 724.8000000000002 199.6 720.2000000000003C201.4 714.0000000000002 205.4 700.2000000000003 210.4 681.4000000000002L177.2 635.0000000000002L74 702.6C76.8 708 80 714.2 83.8 721.6C94.2 741.8 107 766.6 119.4 790.4000000000001C162 873 255.6 941.8 309.8 956C317 942.4 328 925.2 344.2 907.6C374.2 875 427.6 836.6 512.4 836.6C597.1999999999999 836.6 650.5999999999999 875.2 680.5999999999999 907.6C696.8 925.2 707.8 942.6 714.9999999999999 956C768.9999999999999 941.6 862.5999999999999 872.8 905.3999999999997 790.4C917.7999999999998 766.8 930.3999999999997 742.2 940.7999999999998 722C944.7999999999998 714.6 947.9999999999998 708 950.7999999999998 702.6L847.6 635z" />
    <glyph glyph-name="envelope"
      unicode="&#xF004;"
      horiz-adv-x="1024" d="M993.126 886.344H30.876C13.844 886.344 0 872.5 0 855.438V794.656L512 451.562L1024 794.688V855.438C1024 872.5 1010.156 886.344 993.126 886.344zM0 667.9680000000001V261.1860000000001C0 192.936 55.282 137.654 123.562 137.654H900.438C968.72 137.654 1024 192.936 1024 261.1860000000001V668L512 324.874L0 667.9680000000001z" />
    <glyph glyph-name="lock"
      unicode="&#xF005;"
      horiz-adv-x="1024" d="M834.59 683.642H768.912V767.0740000000001C768.928 837.884 740.1020000000001 902.394 693.664 948.752C647.304 995.174 582.794 1024.032 511.984 1024C441.188 1024.032 376.68 995.174 330.32 948.752C283.898 902.392 255.056 837.884 255.086 767.0740000000001V683.642H189.394C146.998 683.642 112.644 649.27 112.644 606.892V363.374C112.644 162.692 291.448 0 511.998 0C732.55 0 911.354 162.692 911.354 363.374V606.892C911.356 649.27 876.986 683.642 834.59 683.642zM541.096 340.328L564.504 240.278H459.48L482.888 340.3440000000001C454.1080000000001 351.8900000000001 433.7800000000001 380.0060000000001 433.7800000000001 412.908C433.7800000000001 456.1080000000001 468.798 491.126 511.984 491.126C555.2 491.126 590.2180000000001 456.1079999999999 590.2180000000001 412.908C590.218 380.006 569.858 351.89 541.096 340.328zM678.656 683.642H345.342V767.0740000000001C345.358 813.26 363.918 854.628 394.15 884.94C424.446 915.172 465.83 933.716 511.984 933.748C558.1519999999999 933.716 599.552 915.156 629.85 884.94C660.066 854.6279999999999 678.626 813.26 678.6560000000001 767.0740000000001V683.642z" />
    <glyph glyph-name="account"
      unicode="&#xF006;"
      horiz-adv-x="1024" d="M512 1006C238 1006 16 784 16 510S238 14 512 14S1008 236 1008 510S786 1006 512 1006zM512 814C609.2 814 688 735.2 688 638S609.2 462 512 462S336 540.8 336 638S414.8 814 512 814zM512 126C394.6 126 289.4 179.2000000000001 219 262.4C256.6 333.2 330.2 382 416 382C420.8 382 425.6 381.2000000000001 430.2 379.8C456.2 371.4 483.4 366 512 366S568 371.4 593.8 379.8C598.4 381.2 603.1999999999999 382 608 382C693.8 382 767.4 333.2000000000001 805 262.4C734.6 179.2000000000001 629.4 126 512 126z" />
    <glyph glyph-name="bell"
      unicode="&#xF007;"
      horiz-adv-x="1024" d="M365 123.8C377.4 52 439 0 511.8 0C584.6 0 646.4 52 658.8 123.8L659.5999999999999 128.1999999999999H364.4L365 123.8zM930.6 295.6C920.6 305.6 910.4 314.2000000000001 900.4 322.4C858.8 357 822.8 386.8 822.8 510.8V609C822.8 753.5999999999999 721.1999999999999 880.3999999999999 580.8 912.2C586.4 923.2 589.1999999999999 934.8 589.1999999999999 946.8C589.4 989.4 554.6 1024 512 1024C469.4 1024 434.6 989.4 434.6 946.6C434.6 934.6 437.4000000000001 923 443 912C302.4 880.2 201 753.4 201 608.8V510.6C201 386.6 165 356.8 123.4 322.2000000000001C113.6 314 103.2 305.4000000000001 93.2 295.4000000000001L92.2 294.4000000000001V196.8000000000001H931.2V294.4000000000001L930.6 295.6z" />
    <glyph glyph-name="id-badge"
      unicode="&#xF008;"
      horiz-adv-x="1024" d="M800 1024H224C171 1024 128 981 128 928V96C128 43 171 0 224 0H800C853 0 896 43 896 96V928C896 981 853 1024 800 1024zM416 940H608C625.6 940 640 925.6 640 908S625.6 876 608 876H416C398.4 876 384 890.4 384 908S398.4 940 416 940zM512 704C582.6 704 640 646.6 640 576S582.6 448 512 448S384 505.4 384 576S441.4 704 512 704zM736 230.4C736 209.1999999999999 716 192 691.2 192H332.8C308 192 288 209.2000000000001 288 230.4V268.8C288 332.4 348.2 384 422.4 384H432.4C457 373.8 483.8 368 512 368S567.2 373.8 591.6 384H601.6C675.8000000000001 384 736 332.4 736 268.8V230.4z" />
    <glyph glyph-name="question-circle"
      unicode="&#xF009;"
      horiz-adv-x="1024" d="M1008 512C1008 238 786 16 512 16S16 238 16 512C16 785.8 238 1008 512 1008S1008 785.8 1008 512zM525.4 844C416.4 844 346.8 798 292.4 716.4C285.4 705.8 287.6 691.5999999999999 297.8 683.8L367.2 631.1999999999999C377.5999999999999 623.3999999999999 392.3999999999999 625.1999999999999 400.5999999999999 635.3999999999999C436.3999999999999 680.8 460.7999999999999 706.9999999999999 515.1999999999999 706.9999999999999C555.9999999999999 706.9999999999999 606.5999999999999 680.8 606.5999999999999 640.9999999999999C606.5999999999999 610.9999999999999 581.8 595.5999999999999 541.5999999999999 572.9999999999999C494.2 547 432 514.2 432 432V424C432 410.8 442.8 400 456 400H568C581.2 400 592 410.8 592 424V426.6C592 483.6 758.4 485.8000000000001 758.4 640C758.4 756 638 844 525.4 844zM512 348C461.2 348 420 306.8 420 256C420 205.2000000000001 461.2 164 512 164S604 205.2000000000001 604 256C604 306.8 562.8 348 512 348z" />
    <glyph glyph-name="home"
      unicode="&#xF00A;"
      horiz-adv-x="1024" d="M1024 508.6C1023.6 514.2 1021.2 518.8 1017 522.2L878 637.8V896.6C878 902.6 876 907.4 872.2 911.2C868.4000000000001 915 863.6 917 857.6 917H735.8000000000001C729.8000000000001 917 725.0000000000001 915 721.2 911.2C717.4000000000001 907.4 715.4000000000001 902.6 715.4000000000001 896.6V772.8L560.6000000000001 902.2C547.0000000000001 913.2 531.0000000000001 918.8 512.4000000000001 918.8C493.8000000000001 918.8 477.6000000000001 913.2 464.2000000000001 902.2L7.6 522.2C3.4 518.8 1 514.2 0.6 508.6C0.2 502.8000000000001 1.6 498 5 493.6L44.4 446.6C47.8 442.8000000000001 52.2 440.4 57.8 439.6C62.8 439.2000000000001 68 440.6 73 444L147.2 506C147 417.2000000000001 146.6 145.2000000000001 146.6 145.2000000000001C146.6 134.2000000000001 150.6 124.6 158.6 116.6C166.6 108.6 176.2 104.6 187.2 104.6H411V348.2000000000001H613.6V104.4000000000001H837.4000000000001C848.4000000000001 104.4000000000001 858.0000000000001 108.4000000000001 866.0000000000001 116.4000000000001C874.0000000000001 124.4000000000001 878.0000000000001 134.0000000000001 878.0000000000001 145.0000000000001C878.0000000000001 145.0000000000001 877.8000000000001 416.8000000000002 877.6000000000001 505.8000000000002L951.6000000000003 444.0000000000003C955.0000000000002 441.0000000000003 959.4 439.6000000000003 965.0000000000002 439.6000000000003H967.0000000000002C972.4 440.4000000000002 977.0000000000002 442.8000000000003 980.4 446.6000000000003L1019.8 493.6000000000003C1022.8 497.8 1024.4 502.8 1024 508.6z" />
    <glyph glyph-name="bug"
      unicode="&#xF00B;"
      horiz-adv-x="1024" d="M1024 446.2000000000001C1023 411.4000000000001 993.6 384 958.6 384H848V352C848 308.2000000000001 838.2 266.8 820.8 229.8L941.2 109.4C966.2 84.4 966.2 43.8 941.2 18.8C916.2 -6.2 875.5999999999999 -6.2 850.5999999999999 18.8L741.1999999999999 128.1999999999999C691.8 88 628.8 64 560 64V552C560 565.2 549.2 576 536 576H488C474.8 576 464 565.2 464 552V64C395.2 64 332.2 88 282.8 128.2000000000001L173.4 18.8000000000001C148.4 -6.1999999999998 107.8 -6.1999999999998 82.8 18.8000000000001C57.8 43.8000000000001 57.8 84.4000000000001 82.8 109.4000000000001L203.2 229.8000000000001C185.8 266.8 176 308.2000000000001 176 352V384H65.4C30.4 384 1 411.4 0 446.2000000000001C-1 482.4 28 512 64 512H176V629.4L82.8 722.5999999999999C57.8 747.5999999999999 57.8 788.1999999999999 82.8 813.1999999999999C107.8 838.1999999999999 148.4 838.1999999999999 173.4 813.1999999999999L282.6 704H741.5999999999999L850.8 813.1999999999999C875.8 838.1999999999999 916.4 838.1999999999999 941.4 813.1999999999999C966.4 788.1999999999999 966.4 747.5999999999999 941.4 722.5999999999999L848 629.4V512H960C996 512 1025 482.4 1024 446.2000000000001zM514 1024C390.2 1024 290 923.8 290 800H738C738 923.8 637.8 1024 514 1024z" />
    <glyph glyph-name="version"
      unicode="&#xF00C;"
      horiz-adv-x="1024" d="M843.2 1024H460.8C402.2 1024 354.6 976.4 354.6 917.8V106.1999999999999C354.6 47.5999999999999 402.2000000000001 0 460.8 0H843.2C901.8 0 949.4 47.6 949.4 106.2000000000001V917.8C949.4 976.4 901.8 1024 843.2 1024zM652 43.8C617.8 43.8 590 71.5999999999999 590 105.8S617.8 167.8 652 167.8C686.2 167.8 714 140 714 105.8S686.2 43.8 652 43.8zM134.6 106.2000000000001V837.8C134.6 843.4 135 848.8 135.8 854C99.6 837 74.6 800.4 74.6 757.8V106.2000000000001C74.6 47.6 122.2 0 180.8 0H240.8C182.2 0 134.6 47.6 134.6 106.2000000000001zM274.6 106.2000000000001V917.8C274.6 923.4 275 928.8 275.8 934C239.6 917 214.6 880.4 214.6 837.8V106.2000000000001C214.6 47.6 262.2000000000001 0 320.8 0H380.8C322.2 0 274.6 47.6 274.6 106.2000000000001z" />
    <glyph glyph-name="bullhorn"
      unicode="&#xF00D;"
      horiz-adv-x="1024" d="M1024 568.8C1024 606 1000.2 637.6 967.2 649.2V853.2C967.2 916 916.2 967 853.4000000000001 967C737.8000000000001 867.4000000000001 601.0000000000001 739.4000000000001 369.8000000000001 739.4000000000001H85.4C38.2 739.6 0 701.4 0 654.2V483.6C0 436.4 38.2 398.2000000000001 85.4 398.2000000000001H162.4C129 283.2000000000001 166.8 191.4000000000001 195.8 100.6C198.8 91.2000000000001 205 83 213.4 77.8000000000001C250.4 54.4000000000001 335 50.0000000000001 380.2000000000001 68.6C408.8000000000001 80.4 415.6 117.4 393.6 138.8000000000001C360.6 170.8000000000001 340 204.4000000000001 358.4000000000001 247.0000000000001C361.4000000000001 253.8000000000001 360.6 261.6000000000002 356.6 267.8000000000001C327.6 311.6 350.2000000000001 378.2000000000001 407.2000000000001 397.2000000000001C616 384.4000000000001 744.4000000000001 264.8000000000001 853.4000000000001 170.8000000000001C916.2 170.8000000000001 967.2 221.8000000000001 967.2 284.6V488.6C1000.2 500.2 1024 531.8 1024 568.8zM880 262C760.2 360.8 605.8 465.8 388.6 492.2V645.2C605.8 671.8 760.4 776.8 880 875.6V262z" />
    <glyph glyph-name="ribbon"
      unicode="&#xF00E;"
      horiz-adv-x="1024" d="M76.2 135.4C57 113.8 61.2 80.1999999999999 85.2 64L222.8 8.2C242.6 -5.2 269.4000000000001 -1.8 285.4000000000001 15.8000000000001L469 219.6000000000001L310.6 395.4000000000001L76.2 135.4L76.2 135.4zM947.8 135.4C947.8 135.4 363.8 784.6 357 795.6C387.8 812.4000000000001 437.4 831.4000000000001 512 831.4000000000001S636.2 812.4000000000001 667 795.6C660.4 784.4000000000001 555 666.4000000000001 555 666.4000000000001L713.2 491L781.6 567C839 630.8 848.2 724.2 804.4 798L717 945C708.4 959.4 697.2 971.6 683.4 981C602 1036.2 428.6 1040.4 340.6 981C326.8 971.6 315.6 959.4 307 945L219.8 798.6C216.8 793.6 145.6 674.2 242.8 566.6L739 16C755 -1.8 781.8 -5 801.6 8.4L939.2 64.1999999999999C963 80.2000000000001 967.2 113.8 947.8 135.4L947.8 135.4z" />
    <glyph glyph-name="plus-circle"
      unicode="&#xF00F;"
      horiz-adv-x="1024" d="M512 1006C238 1006 16 784 16 510S238 14 512 14S1008 236 1008 510S786 1006 512 1006zM800 454C800 440.8 789.2 430 776 430H592V246C592 232.8 581.2 222 568 222H456C442.8 222 432 232.8 432 246V430H248C234.8 430 224 440.8 224 454V566C224 579.2 234.8 590 248 590H432V774C432 787.2 442.8 798 456 798H568C581.2 798 592 787.2 592 774V590H776C789.2 590 800 579.2 800 566V454z" />
    <glyph glyph-name="bars"
      unicode="&#xF010;"
      horiz-adv-x="1024" d="M96 760H928C945.6 760 960 774.4 960 792V872C960 889.6 945.6 904 928 904H96C78.4 904 64 889.6 64 872V792C64 774.4 78.4 760 96 760zM96 440H928C945.6 440 960 454.4 960 472V552C960 569.6 945.6 584 928 584H96C78.4 584 64 569.6 64 552V472C64 454.4 78.4 440 96 440zM96 120H928C945.6 120 960 134.4 960 152V232C960 249.6 945.6 264 928 264H96C78.4 264 64 249.6 64 232V152C64 134.4 78.4 120 96 120z" />
    <glyph glyph-name="facebook"
      unicode="&#xF011;"
      horiz-adv-x="1024" d="M512 1012.4C235.6 1012.4 11.6 788.4 11.6 512S235.6 11.6 512 11.6S1012.4 235.6 1012.4 512S788.4 1012.4 512 1012.4zM635.6 722.6H576.2C529.6 722.6 520.6 700.4000000000001 520.6 668V596.4H631.6L617.2 484.4H520.6V196.8H404.8V484.4H308V596.4H404.8V679C404.8 774.8 463.4 827.2 549 827.2C577.8 827.2 606.8 825.8 635.4 822.8V722.6z" />
    <glyph glyph-name="line"
      unicode="&#xF012;"
      horiz-adv-x="1024" d="M11.66 512A500.34 500.34 0 0 1 1012.34 512A500.34 500.34 0 0 1 11.66 512M486.64 229.5800000000001C485.48 232.6 486.22 246.64 488.26 260.74C492.08 286.98 490.46 297.8200000000001 481.6 305.1800000000001C478.98 307.36 461.6 312.24 442.82 316.0400000000001C322.82 340.4400000000001 238.82 410.6400000000001 214.0399999999999 507.3200000000001C194.0399999999999 585.72 225.62 670.22 296.56 727.76C321.06 747.6400000000001 370.3399999999999 773.6 402.24 783.4200000000001C431.88 792.5400000000001 480.78 799.9000000000001 511.86 799.9000000000001S591.8599999999999 792.54 621.48 783.4200000000001C634.08 779.5400000000001 658.38 769.2 675.48 760.4200000000001C746.74 723.8800000000001 792.2 670.1200000000001 809.6800000000001 601.7600000000001C831.08 518 797.16 439.04 706 360.12C640.2 303.2000000000001 518 224.12 495.9 224.12A10.28 10.28 0 0 0 486.72 229.62zM398.76 476C405.04 478.38 407.16 481.52 407.16 488.4400000000001C407.16 502.8200000000001 401.88 505.5400000000001 373.78 505.5400000000001H348.26V560C348.26 606.16 347.42 615.46 342.84 620.54C336.12 627.96 329.3 628.1400000000001 321.52 621.1C316.1 616.2 315.52 609.52 315.52 551.38C315.52 485.84 316.64 479.28 328.6 475C337.22 471.92 390.04 472.62 398.74 475.92zM452.14 482C455.1 485.66 456.14 504.46 456.14 549.52C456.14 600.74 455.22 613.28 451.04 619.24C445.04 627.88 437.6 628.52 429.4 621.1C423.98 616.2 423.4 609.46 423.4 549.3C423.4 485.42 423.66 482.74 430.32 478.0600000000001C438 472.78 445.84 474.1799999999999 452.16 482zM507.86 519.74C508.36 542.48 509.86 561.04 511.14 561S527.28 541.94 544.14 518.74S577.46 475.88 580.74 475.02S589.74 475.6 593.46 478.1999999999999C599.9200000000001 482.7199999999999 600.22 485.9399999999999 600.22 549.5799999999999C600.22 605.8199999999999 599.4200000000001 617.04 595.08 621.3799999999999C588.72 627.74 583.7 627.8799999999999 575.48 621.8799999999999C570 617.8799999999999 568.9 611.8799999999999 567.48 578.54L565.84 539.8199999999999L535.14 581.4399999999999C518.26 604.3399999999999 501.74 623.92 498.46 624.9599999999999A19.02 19.02 0 0 1 485.82 623.28C479.44 619.8599999999999 479.16 616.78 479.16 551.28C479.16 485.28 479.4 482.6999999999999 486.08 478.0199999999999A14.72 14.72 0 0 1 500.08 475.7599999999999C506.52 478.24 507.02 480.9400000000001 507.88 519.76zM707.44 477.74C711.44 480.54 714.6800000000001 485.3200000000001 714.6600000000001 488.38C714.5400000000001 500.88 709.0000000000001 503.7 681.3000000000001 505.38L654.1800000000001 507.02V533.28L681.9200000000001 534.92C708.6800000000001 536.5 709.7800000000001 536.92 712.84 545.5999999999999C718.0400000000001 560.4399999999999 709.64 565.74 678.62 567.14L652.62 568.3199999999999V593.8199999999999H677.72C711.1800000000001 593.8199999999999 723.86 604.54 709.38 620.56C704.8 625.62 698.74 626.56 669.9 626.56C651.16 626.56 632.98 625.04 629.5 623.1800000000001C623.5 620 623.18 615.6600000000001 623.18 551.38C623.18 468.62 620.76 472.78 668.9799999999999 472.78C691.9799999999999 472.78 702.1599999999999 474.12 707.5199999999999 477.88z" />
    <glyph glyph-name="twitter"
      unicode="&#xF013;"
      horiz-adv-x="1024" d="M512 1012.4C235.6 1012.4 11.6 788.4 11.6 512S235.6 11.6 512 11.6S1012.4 235.6 1012.4 512S788.4 1012.4 512 1012.4zM755.4 636.8C763.4 460.2 631.6 263.4000000000001 398.6 263.4000000000001C330.4 263.4000000000001 263.6 283.0000000000001 206.2 319.8000000000001C272.6 311.8000000000001 339.4 330.6 392 371.8000000000001C338.2 372.8000000000001 291.2 407.8000000000001 274.8 459.0000000000001C293.6 455.4000000000001 313 456.2000000000002 331.6 461.2000000000002C271.2000000000001 473.4000000000002 229.6 527.8000000000002 230.8 586.0000000000002C248.2 576.4000000000001 267.8 571.0000000000002 287.6 570.2000000000002C232.4000000000001 607.0000000000002 215.4 680.4000000000001 248.6 737.8000000000002C312.4000000000001 659.4000000000002 406.4000000000001 611.6000000000001 507.4 606.6000000000001C497.2 650.4000000000002 511.0000000000001 696.2000000000002 543.8000000000001 727.0000000000002C594.4000000000001 774.4000000000002 674 771.8000000000002 721.4000000000001 721.2000000000003C749.6000000000001 726.8000000000002 776.4000000000001 737.0000000000002 801.2 751.6000000000001C791.8000000000001 722.6000000000001 772.2 697.8000000000002 746 682.2000000000002C771 685.2000000000002 795.2 691.8000000000002 818.2 702.0000000000002C801.2 676.6 780 654.6 755.4 636.8z" />
    <glyph glyph-name="chevron-down"
      unicode="&#xF014;"
      horiz-adv-x="1024" d="M80 808L0 728L512 216L1024 728L944 808L512 376z" />
    <glyph glyph-name="sign-out-alt"
      unicode="&#xF015;"
      horiz-adv-x="1024" d="M1002 478L666 142C636 112 584 133 584 176V368H312C285.4 368 264 389.4 264 416V608C264 634.6 285.4 656 312 656H584V848C584 890.8 635.8 912 666 882L1002 546C1020.6 527.2 1020.6 496.8 1002 478zM392 152V232C392 245.2000000000001 381.2 256 368 256H200C164.6 256 136 284.6 136 320V704C136 739.4 164.6 768 200 768H368C381.2 768 392 778.8 392 792V872C392 885.2 381.2 896 368 896H200C94 896 8 810 8 704V320C8 214 94 128 200 128H368C381.2 128 392 138.8 392 152z" />
    <glyph glyph-name="check"
      unicode="&#xF016;"
      horiz-adv-x="1024" d="M347.8 145.2000000000001L15 478C-5 498 -5 530.4 15 550.4L87.4 622.8C107.4 642.8 139.8 642.8 159.8 622.8L384 398.6L864.2 878.8C884.2 898.8 916.6 898.8 936.6 878.8L1009 806.4C1029 786.4 1029 754 1009 734L420.2 145.2000000000001C400.2 125.2000000000001 367.8 125.2000000000001 347.8 145.2000000000001L347.8 145.2000000000001z" />
    <glyph glyph-name="check-circle"
      unicode="&#xF017;"
      horiz-adv-x="1024" d="M1008 512C1008 238 786 16 512 16S16 238 16 512S238 1008 512 1008S1008 786 1008 512zM454.6 249.4L822.6 617.4C835 629.8 835 650.2 822.6 662.5999999999999L777.4 707.8C765 720.1999999999999 744.6 720.1999999999999 732.1999999999999 707.8L432 407.8L291.8 548C279.4000000000001 560.3999999999999 259 560.3999999999999 246.6 548L201.4 502.8C189 490.4 189 470 201.4 457.5999999999999L409.4000000000001 249.5999999999999C421.8 236.8 442.2 236.8 454.6 249.4L454.6 249.4z" />
    <glyph glyph-name="sign-in-alt"
      unicode="&#xF018;"
      horiz-adv-x="1024" d="M832 136H664C650.8 136 640 146.8 640 160V240C640 253.2000000000001 650.8 264 664 264H832C867.4 264 896 292.6 896 328V712C896 747.4 867.4 776 832 776H664C650.8 776 640 786.8 640 800V880C640 893.2 650.8 904 664 904H832C938 904 1024 818 1024 712V328C1024 222 938 136 832 136zM738 538L402 874C372 904 320 883 320 840V648H48C21.4 648 0 626.6 0 600V408C0 381.4 21.4 360 48 360H320V168C320 125 372 104 402 134L738 470C756.6 488.8 756.6 519.2 738 538z" />
    <glyph glyph-name="female"
      unicode="&#xF019;"
      horiz-adv-x="1024" d="M512 1023C588.6 1023 650.6 961 650.6 884.4S588.6 745.8 512 745.8S373.4 807.8 373.4 884.4S435.4 1023 512 1023M770.2 299.4L666.2 671.8C660.4000000000001 695 639.6 711.1999999999999 615.8000000000001 711.1999999999999H591.2C542 688.5999999999999 483.8000000000001 687.5999999999999 432.6 711.1999999999999H408C384.2 711.1999999999999 363.4 695 357.6 671.8L253.6 299.4C245.4000000000001 266.6 270.2000000000001 234.8 304 234.8H425.2V53C425.2 24.2 448.4 1 477.2 1H546.4C575.1999999999999 1 598.4 24.2 598.4 53V234.8H719.6C753.6 234.8 778.4 266.6 770.2 299.4L770.2 299.4z" />
    <glyph glyph-name="male"
      unicode="&#xF01A;"
      horiz-adv-x="1024" d="M512 1023C588.6 1023 650.6 961 650.6 884.4S588.6 745.8 512 745.8S373.4 807.8 373.4 884.4S435.4 1023 512 1023M616 711.2H591.4C542.1999999999999 688.5999999999999 484 687.5999999999999 432.8 711.2H408C350.6 711.2 304 664.5999999999999 304 607.2V356C304 327.2000000000001 327.2 304 356 304H390.6V52.8C390.6 24 413.8 0.8 442.6 0.8H581.2C610 0.8 633.2 24 633.2 52.8V304.2000000000001H667.8000000000001C696.6 304.2000000000001 719.8000000000001 327.4000000000001 719.8000000000001 356.2000000000001V607.2C719.8 664.6 673.4 711.2 616 711.2z" />
    <glyph glyph-name="map-marker"
      unicode="&#xF01B;"
      horiz-adv-x="1024" d="M512 0C512 0 512 0 512 0C485.2 0 460.2 13.2 444.8 35.2L444.8 35.2C396.8 104.8000000000001 356.4 162.4000000000001 320.8 213.2000000000001C157.6 445.8000000000001 118.8 501 118.8 630.8000000000001C118.8 847.6 295.2 1024 512 1024S905.2 847.6 905.2 630.8C905.2 501 866.4000000000001 445.8 703.2 213.2000000000001C667.6 162.4000000000001 627.2 104.8000000000001 579.2 35.2C563.8 13.2 538.8 0 512 0zM506 77.4C507.8 74.8 510.4 74.1999999999999 512 74.1999999999999C513.8 74.1999999999999 516.2 74.8 518 77.4C566.2 147.1999999999999 606.6 204.8 642.4 255.8C802.2 483.4 831 524.4 831 630.8C831 806.8 687.8 949.8 512 949.8C336 949.8 193 806.5999999999999 193 630.8C193 524.5999999999999 221.8 483.5999999999999 381.6 255.8C417.2 204.8 457.8 147.2000000000001 506 77.4zM512 445.2000000000001C409.8 445.2000000000001 326.4 528.4000000000001 326.4 630.8000000000001S409.6 816.4000000000001 512 816.4000000000001C614.2 816.4000000000001 697.6 733.2 697.6 630.8000000000001S614.2 445.2000000000001 512 445.2000000000001zM512 742C450.6 742 400.6 692 400.6 630.6S450.6 519.2 512 519.2S623.4 569.2 623.4 630.6S573.4 742 512 742z" />
    <glyph glyph-name="exclamation-circle"
      unicode="&#xF01C;"
      horiz-adv-x="1024" d="M512 390C461.2 390 420 348.8 420 298S461.2 206 512 206S604 247.2000000000001 604 298S562.8 390 512 390zM424.6 760.6L439.4000000000001 488.6C440.0000000000001 475.8000000000001 450.6 466 463.4 466H560.4000000000001C573.2 466 583.6000000000001 476 584.4000000000001 488.6L599.2 760.6C600 774.4000000000001 589 786 575.2 786H448.4000000000001C434.8 786 424 774.4 424.6 760.6L424.6 760.6zM420 298A92 92 0 0 1 604 298A92 92 0 0 1 420 298M424.6 760.6L439.4000000000001 488.6C440.0000000000001 475.8000000000001 450.6 466 463.4 466H560.4000000000001C573.2 466 583.6000000000001 476 584.4000000000001 488.6L599.2 760.6C600 774.4000000000001 589 786 575.2 786H448.4000000000001C434.8 786 424 774.4 424.6 760.6L424.6 760.6zM512 1006C238 1006 16 783.8 16 510C16 236 238 14 512 14S1008 236 1008 510C1008 783.8 786 1006 512 1006zM512 108C290 108 110 288 110 510C110 732 290 912 512 912S914 732 914 510C914 288 734 108 512 108z" />
    <glyph glyph-name="ban"
      unicode="&#xF01D;"
      horiz-adv-x="1024" d="M512 1008C238 1008 16 786 16 512S238 16 512 16S1008 238 1008 512S786 1008 512 1008zM772.2 772.2C903 641.4 912.2 441.2000000000001 813.6 301L301 813.6C441.4 912.2 641.4 903 772.2 772.2zM251.8 251.8C121 382.5999999999999 111.8 582.8 210.4 723L723 210.3999999999999C582.6 111.8 382.6 121 251.8 251.8z" />
    <glyph glyph-name="map-marker-alt"
      unicode="&#xF01E;"
      horiz-adv-x="1024" d="M512 0L512 0C485.2 0 460.2 13.2 444.8 35.2L444.8 35.2C396.8 104.8000000000001 356.4 162.4000000000001 320.8 213.2000000000001C157.6 445.8000000000001 118.8 501 118.8 630.8000000000001C118.8 847.6 295.2 1024 512 1024S905.2 847.6 905.2 630.8C905.2 501 866.4000000000001 445.8 703.2 213.2000000000001C667.6 162.4000000000001 627.2 104.8000000000001 579.2 35.2C563.8 13.2 538.8 0 512 0zM512 831.2C401.4 831.2 311.4 741.2 311.4 630.6S401.4 430 512 430S712.6 520 712.6 630.6S622.6 831.2 512 831.2z" />
    <glyph glyph-name="map-pin"
      unicode="&#xF01F;"
      horiz-adv-x="1024" d="M576 422.4V76.8L532 10.8C522.4 -3.4000000000001 501.6 -3.4000000000001 492 10.8L448 76.8V422.4C490.2 413.8 533.8 413.8 576 422.4zM512 1024C671 1024 800 895 800 736S671 448 512 448S224 577 224 736S353 1024 512 1024M352 752C352 831.4 416.6 896 496 896C504.8 896 512 903.2 512 912S504.8 928 496 928C399 928 320 849 320 752C320 743.2 327.2 736 336 736S352 743.2 352 752z" />
    <glyph glyph-name="map-marked-alt"
      unicode="&#xF020;"
      horiz-adv-x="1152" d="M576 1024C436.8 1024 324 911.2 324 772C324 659.4 488.8 454.4 551.8 380C564.5999999999999 365 587.4 365 600.1999999999999 380C663.2 454.4 828 659.4 828 772C828 911.2 715.2 1024 576 1024zM576 650C508.6 650 454 704.6 454 772S508.6 894 576 894S698 839.4 698 772S643.4 650 576 650zM40.2 592.2C16 582.4 0 558.8 0 532.6V32C0 9.4 22.8 -6.2 43.8 2.2L320 128V594.2C302.4 626.2 287.8 657.2 277.6 687L40.2 592.2zM576 304.6C547.8 304.6 521.2 317 503 338.6C463.6 385 421.8 437.8000000000001 384 492V128L768 0V492C730.2 437.8 688.4 385 649 338.6C630.8 317 604.2 304.6 576 304.6zM1108.2 701.6L832 576V0L1111.8 112C1136.2 121.8 1152 145.2000000000001 1152 171.4V672C1152 694.6 1129.2 710 1108.2 701.6L1108.2 701.6z" />
    <glyph glyph-name="pen"
      unicode="&#xF021;"
      horiz-adv-x="1024" d="M581.4 837.6L837.4 581.6L281.4 25.6L53.2 0.4C22.6 -3 -3.2 22.8 0.2 53.4L25.6 281.8C25.6 281.8 581.4 837.6 581.4 837.6zM995.8 875.6L875.5999999999999 995.8C837.9999999999999 1033.4 777.1999999999999 1033.4 739.8 995.8L626.8 882.8L882.8 626.8L995.8 740C1033.4 777.4 1033.4 838.2 995.8 875.6z" />
    <glyph glyph-name="camera"
      unicode="&#xF022;"
      horiz-adv-x="1024" d="M1024 736V160C1024 107 981 64 928 64H96C43 64 0 107 0 160V736C0 789 43 832 96 832H272L296.6 897.8C310.6 935.2 346.4000000000001 960 386.4000000000001 960H637.4000000000001C677.4000000000001 960 713.2 935.2 727.2 897.8L752 832H928C981 832 1024 789 1024 736zM752 448C752 580.4 644.4 688 512 688S272 580.4 272 448S379.6 208 512 208S752 315.6 752 448zM688 448C688 351 609 272 512 272S336 351 336 448S415 624 512 624S688 545 688 448z" />
    <glyph glyph-name="desktop"
      unicode="&#xF023;"
      horiz-adv-x="1152" d="M1056 1024H96C43 1024 0 981 0 928V288C0 235 43 192 96 192H480L448 96H304C277.4 96 256 74.6 256 48S277.4 0 304 0H848C874.6 0 896 21.4 896 48S874.6 96 848 96H704L672 192H1056C1109 192 1152 235 1152 288V928C1152 981 1109 1024 1056 1024zM1024 320H128V896H1024V320z" />
    <glyph glyph-name="mobile-alt"
      unicode="&#xF024;"
      horiz-adv-x="1024" d="M736 1024H288C235 1024 192 981 192 928V96C192 43 235 0 288 0H736C789 0 832 43 832 96V928C832 981 789 1024 736 1024zM512 64C476.6 64 448 92.6 448 128S476.6 192 512 192S576 163.4 576 128S547.4 64 512 64zM736 280C736 266.8 725.2 256 712 256H312C298.8 256 288 266.8 288 280V904C288 917.2 298.8 928 312 928H712C725.2 928 736 917.2 736 904V280z" />
    <glyph glyph-name="dashboard"
      unicode="&#xF025;"
      horiz-adv-x="1024" d="M512 914.6C231.6 914.6 4.2 687.2 4.2 406.8C4.2 295.8 39.8 193 100.4 109.5999999999999H923.8C984.2 193.1999999999999 1020 295.8 1020 406.8C1019.8 687.2 792.4 914.6 512 914.6zM512 841.6C553.4 841.6 586.8 808 586.8 766.8S553.1999999999999 692 511.9999999999999 692C470.6 692 437.2 725.6 437.2 766.8S470.6 841.6 512 841.6zM152 331.8C110.6 331.8 77.2 365.4 77.2 406.5999999999999S110.8 481.3999999999999 152 481.3999999999999C193.4 481.3999999999999 226.8 447.7999999999999 226.8 406.5999999999999S193.4 331.8 152 331.8zM310.4 608.4C281.2 579.2 233.8 579.2 204.6 608.4C175.4 637.5999999999999 175.4 685 204.6 714.2C233.8 743.4 281.2 743.4 310.4 714.2C339.6 685 339.6 637.6 310.4 608.4zM629.4 616L582.8 377.4C607 357.2 622.4 326.8 622.4 292.8C622.4 231.8 573 182.4 512 182.4S401.6 231.8 401.6 292.8C401.6 347.2 441 392.4 493 401.4L571.8 631.4C584 666.6 636.6 652.4 629.4 616zM713.6 608.4C684.4 637.5999999999999 684.4 685 713.6 714.2C742.8000000000001 743.4 790.2 743.4 819.4 714.2C848.6 685 848.6 637.6 819.4 608.4C790.2 579.2 742.8 579.2 713.6 608.4zM872 331.8C830.6 331.8 797.2 365.4 797.2 406.5999999999999S830.8000000000001 481.3999999999999 872 481.3999999999999C913.4 481.3999999999999 946.8 447.7999999999999 946.8 406.5999999999999S913.4 331.8 872 331.8z" />
    <glyph glyph-name="users"
      unicode="&#xF026;"
      horiz-adv-x="1280" d="M192 576C262.6 576 320 633.4 320 704S262.6 832 192 832S64 774.6 64 704S121.4 576 192 576zM1088 576C1158.6 576 1216 633.4 1216 704S1158.6 832 1088 832S960 774.6 960 704S1017.4 576 1088 576zM1152 512H1024C988.8 512 957 497.8 933.8 474.8C1014.4 430.5999999999999 1071.6 350.8 1084 256H1216C1251.4 256 1280 284.6 1280 320V384C1280 454.6 1222.6 512 1152 512zM640 512C763.8 512 864 612.2 864 736S763.8 960 640 960S416 859.8 416 736S516.2 512 640 512zM793.6 448H777C735.4 428 689.2 416 640 416S544.8 428 503 448H486.4C359.2 448 256 344.8 256 217.6V160C256 107 299 64 352 64H928C981 64 1024 107 1024 160V217.6C1024 344.8 920.8 448 793.6 448zM346.2 474.8C323 497.8 291.2 512 256 512H128C57.4 512 0 454.6 0 384V320C0 284.6 28.6 256 64 256H195.8C208.4 350.8 265.6 430.6 346.2 474.8L346.2 474.8z" />
    <glyph glyph-name="tool"
      unicode="&#xF027;"
      horiz-adv-x="1024" d="M208.8 744.4L376 576.8C404.6 604.4 429.6 628.1999999999999 448.2 646.1999999999999L279.6 815.1999999999999L259 906.6L108.6 998L67.2 956.8L26 915.4L117.4 765L208.8 744.4zM716.8 471.4L964 225C1009.6 179.4 1009.6 105.6 964 60C918.4 14.4 844.6 14.4 799 60L551.8 306.4L716.8 471.4zM920 617.2C1005 694.4 1019.4 782.2 1000.2 856.2C999.6 862 998.2 867 993.2 870.6L976 884.6C973 887.4 969 888.8 965 888.4C961 888 957.4 886 955 882.6L856.6 754.6C853.8000000000001 750.8 849.4 748.6 844.8000000000001 748.8L809.0000000000001 746.2C806.0000000000001 746.2 803.0000000000001 747.4 800.6000000000001 749.4L731.6000000000001 808C728.8000000000002 810.1999999999999 727.0000000000001 813.5999999999999 726.4000000000001 817.1999999999999L722 849.4C721.6 853 722.4 856.6 724.6 859.6L816.8000000000001 984.8C821.0000000000001 990.6 820.2 998.6 815.0000000000001 1003.4L792.6000000000001 1021C788.2000000000002 1025 783.2000000000002 1024.6 776.4000000000001 1023.2C712.8000000000001 1010.6 604.0000000000001 949 576.4000000000001 863.6C552.0000000000001 788.6 560.6000000000001 735.6 560.6000000000001 735.6C560.6000000000001 693.4000000000001 546.6000000000001 652.6 529.6000000000001 635.4000000000001L49 174.2000000000001C48 173.4000000000001 47.2 172.4000000000001 46.2 171.6C6.6 132 6.6 67.6 45 29.2C83.4 -9.2 148.8 -10.2 188.4 29.6C190.2 31.4 192 33.4 193.6 35.4L657 536C714 586.8 826.8 532.8 920 617.2z" />
    <glyph glyph-name="greater-than"
      unicode="&#xF028;"
      horiz-adv-x="1024" d="M216 80L296 0L808 512L296 1024L216 944L648 512z" />
    <glyph glyph-name="cart-right"
      unicode="&#xF029;"
      horiz-adv-x="1024" d="M343.4 288.6V803.4C343.4 839 386.4 856.8 411.6 831.6L669 574.2C684.6 558.6 684.6 533.2 669 517.6L411.6 260.4C386.4 235.2000000000001 343.4 253 343.4 288.6z" />
    <glyph glyph-name="rate-equall"
      unicode="&#xF02A;"
      horiz-adv-x="1024" d="M512 914.6C231.6 914.6 4.2 687.2 4.2 406.8C4.2 295.8 39.8 193 100.4 109.5999999999999H923.8C984.2 193.1999999999999 1020 295.8 1020 406.8C1019.8 687.2 792.4 914.6 512 914.6zM512 841.6C553.4 841.6 586.8 808 586.8 766.8C586.8 725.6 553.1999999999999 692 511.9999999999999 692C470.6 692 437.2 725.6 437.2 766.8C437.2 808 470.6 841.6 512 841.6zM152 331.8C110.6 331.8 77.2 365.4 77.2 406.5999999999999C77.2 447.8 110.8 481.3999999999999 152 481.3999999999999C193.4 481.3999999999999 226.8 447.7999999999999 226.8 406.5999999999999C226.8 365.4 193.4 331.8 152 331.8zM310.4 608.4C281.2 579.2 233.8 579.2 204.6 608.4C175.4 637.5999999999999 175.4 685 204.6 714.2C233.8 743.4 281.2 743.4 310.4 714.2C339.6 685 339.6 637.6 310.4 608.4zM512 182.4C450.8 182.4 401.2 232 401.2 293.2C401.2 337.8 427.6 376.2 465.6 393.8L483.8 640.8C486.2 674.4 537.8 674.4 540.2 640.8L558.4000000000001 393.8C596.4000000000001 376.2 622.8000000000001 337.8 622.8000000000001 293.2C622.8 232 573.2 182.4 512 182.4zM713.6 608.4C684.4 637.5999999999999 684.4 685 713.6 714.2C742.8000000000001 743.4 790.2 743.4 819.4 714.2C848.6 685 848.6 637.6 819.4 608.4S742.8 579.2 713.6 608.4zM872 331.8C830.6 331.8 797.2 365.4 797.2 406.5999999999999C797.2 447.8 830.8000000000001 481.3999999999999 872 481.3999999999999C913.4 481.3999999999999 946.8 447.7999999999999 946.8 406.5999999999999C946.8 365.4 913.4 331.8 872 331.8z" />
    <glyph glyph-name="rate-female"
      unicode="&#xF02B;"
      horiz-adv-x="1024" d="M512 914.6C231.6 914.6 4.2 687.2 4.2 406.8C4.2 295.8 39.8 193 100.4 109.5999999999999H923.8C984.2 193.1999999999999 1020 295.8 1020 406.8C1019.8 687.2 792.4 914.6 512 914.6zM713.6 714.2C742.8000000000001 743.4 790.2 743.4 819.4 714.2C848.6 685 848.6 637.6 819.4 608.4S742.8 579.2 713.6 608.4C684.4 637.6 684.4 685 713.6 714.2zM512 841.6C553.4 841.6 586.8 808 586.8 766.8C586.8 725.6 553.1999999999999 692 511.9999999999999 692C470.6 692 437.2 725.6 437.2 766.8C437.2 808 470.6 841.6 512 841.6zM152 331.8C110.6 331.8 77.2 365.4 77.2 406.5999999999999C77.2 447.8 110.8 481.3999999999999 152 481.3999999999999C193.4 481.3999999999999 226.8 447.7999999999999 226.8 406.5999999999999C226.8 365.4 193.4 331.8 152 331.8zM310.4 608.4C281.2 579.2 233.8 579.2 204.6 608.4C175.4 637.5999999999999 175.4 685 204.6 714.2C233.8 743.4 281.2 743.4 310.4 714.2C339.6 685 339.6 637.6 310.4 608.4zM777.8 519L616 331.6C630.4 292.4 621.8 246.4 590.4 215C547.1999999999999 171.8 477 171.8 433.6 215S390.4 328.4 433.6 371.8C465.2 403.4 511 411.8 550.1999999999999 397.4L737.8 559.2C763.4 581 799.6 544.6 777.8 519zM872 331.8C830.6 331.8 797.2 365.4 797.2 406.5999999999999C797.2 447.8 830.8000000000001 481.3999999999999 872 481.3999999999999C913.4 481.3999999999999 946.8 447.7999999999999 946.8 406.5999999999999C946.8 365.4 913.4 331.8 872 331.8z" />
    <glyph glyph-name="rate-male"
      unicode="&#xF02C;"
      horiz-adv-x="1024" d="M4.2 406.8C4.2 295.8 40 193.1999999999999 100.4 109.5999999999999H923.8C984.4 192.9999999999999 1020 295.8 1020 406.8C1020 687.1999999999999 792.6 914.6 512.2 914.6S4.4 687.2 4.2 406.8zM310.6 608.4C281.4000000000001 579.2 234.0000000000001 579.2 204.8 608.4S175.6 685 204.8 714.2C234 743.4 281.4 743.4 310.6 714.2C339.8 685 339.8 637.6 310.6 608.4zM587 766.8C587 725.6 553.6 692 512.2 692C471.0000000000001 692 437.4000000000001 725.6 437.4000000000001 766.8C437.4000000000001 808 470.8 841.6 512.2 841.6S587 808 587 766.8zM797.4 406.6C797.4 447.8000000000001 830.8 481.4 872.1999999999999 481.4C913.4 481.4 946.9999999999998 447.8 946.9999999999998 406.6C946.9999999999998 365.4 913.6 331.8000000000001 872.1999999999999 331.8000000000001S797.4 365.4 797.4 406.6zM713.8 714.2C743 743.4 790.4 743.4 819.5999999999999 714.2C848.8 685 848.8 637.6 819.5999999999999 608.4C790.3999999999999 579.2 742.9999999999999 579.2 713.8 608.4C684.6 637.6 684.6 685 713.8 714.2zM286.4 559L474 397.2000000000001C513.2 411.6 559.2 403 590.6 371.6C633.8000000000001 328.4 633.8000000000001 258.2000000000001 590.6 214.8S477.2 171.5999999999999 433.8 214.8C402.2 246.4 393.8 292.2 408.2 331.4L246.4 519C224.6 544.6 260.8 581 286.4 559zM77.4 406.6C77.4 447.8000000000001 110.8 481.4 152.2 481.4C193.4 481.4 227 447.8 227 406.6C227 365.4 193.6 331.8000000000001 152.2 331.8000000000001S77.4 365.4 77.4 406.6z" />
    <glyph glyph-name="ellipsis"
      unicode="&#xFE19;"
      horiz-adv-x="1024" d="M412 1024H612V824H412V1024zM412 612H612V412H412V612zM412 200H612V0H412V200z" />
    <glyph glyph-name="less-than"
      unicode="&#xFF1C;"
      horiz-adv-x="1024" d="M808 944L728 1024L216 512L728 0L808 80L376 512z" />
  </font>
</defs>
</svg>
