<svg width="256" height="256" viewBox="0 0 256 256" fill="none" xmlns="http://www.w3.org/2000/svg">
<rect width="256" height="256" fill="#464C59"/>
<path opacity="0.2" d="M128 46C82.7016 46 46 82.7016 46 128C46 173.298 82.7016 210 128 210C173.298 210 210 173.298 210 128C210 82.7016 173.298 46 128 46ZM128 77.7419C144.069 77.7419 157.097 90.7694 157.097 106.839C157.097 122.908 144.069 135.935 128 135.935C111.931 135.935 98.9032 122.908 98.9032 106.839C98.9032 90.7694 111.931 77.7419 128 77.7419ZM128 191.484C108.591 191.484 91.1992 182.689 79.5605 168.934C85.7766 157.229 97.9444 149.161 112.129 149.161C112.923 149.161 113.716 149.294 114.477 149.525C118.775 150.914 123.272 151.806 128 151.806C132.728 151.806 137.258 150.914 141.523 149.525C142.284 149.294 143.077 149.161 143.871 149.161C158.056 149.161 170.223 157.229 176.44 168.934C164.801 182.689 147.409 191.484 128 191.484Z" fill="white"/>
</svg>
