<svg width="1000" height="1000" viewBox="0 0 1000 1000" fill="none" xmlns="http://www.w3.org/2000/svg">
<g clip-path="url(#clip0)">
<rect width="1000" height="1000" transform="translate(2.18557e-05 1000) rotate(-90)" fill="white"/>
<rect x="2.18557e-05" y="1000" width="1000" height="1000" transform="rotate(-90 2.18557e-05 1000)" fill="#AD1457"/>
<path d="M-2.18557e-05 0L-1.08404e-05 252L1000 304L1000 -4.37114e-05L-2.18557e-05 0Z" fill="#C62828"/>
<path d="M-2.18557e-05 0L2.18557e-05 1000L88.064 1000L155.488 -6.7966e-06L-2.18557e-05 0Z" fill="white" style="mix-blend-mode:overlay"/>
<path d="M1000.31 -1.12475e-05L1000.31 1000L743 1000L810.424 -2.9472e-06L1000.31 -1.12475e-05Z" fill="#B71C1C" style="mix-blend-mode:overlay"/>
</g>
<defs>
<clipPath id="clip0">
<rect width="1000" height="1000" fill="white" transform="translate(2.18557e-05 1000) rotate(-90)"/>
</clipPath>
</defs>
</svg>
