<svg width="1000" height="1000" viewBox="0 0 1000 1000" fill="none" xmlns="http://www.w3.org/2000/svg">
<g clip-path="url(#clip0)">
<rect width="1000" height="1000" transform="translate(0 1000) rotate(-90)" fill="white"/>
<rect width="999.998" height="1000" transform="matrix(4.37114e-08 1 1 -4.37114e-08 0 0)" fill="#BF360C"/>
<path d="M0 0L6.11958e-06 140L1000 200L1000 -4.37114e-05L0 0Z" fill="#E65100"/>
<path d="M1.39876e-05 1000L0 680.001L1000 740.001L1000 1000L1.39876e-05 1000Z" fill="#E65100"/>
<path d="M0 0L4.37113e-05 999.998L256 999.998L292 -1.27637e-05L0 0Z" fill="#FFD180" style="mix-blend-mode:overlay"/>
<path d="M1000 -1.23266e-05L1000 999.998L718 999.998L754 -1.57361e-06L1000 -1.23266e-05Z" fill="#A73C3C" style="mix-blend-mode:overlay"/>
</g>
<defs>
<clipPath id="clip0">
<rect width="1000" height="1000" fill="white" transform="translate(0 1000) rotate(-90)"/>
</clipPath>
</defs>
</svg>
