<svg width="1000" height="1000" viewBox="0 0 1000 1000" fill="none" xmlns="http://www.w3.org/2000/svg">
<g clip-path="url(#clip0)">
<rect width="1000" height="1000" transform="translate(2.18557e-05 1000) rotate(-90)" fill="white"/>
<rect width="1000" height="999.688" transform="matrix(4.37114e-08 1 1 -4.37114e-08 -2.18557e-05 0)" fill="#AD1457"/>
<path d="M2.18557e-05 1000L1.08404e-05 748L999.688 696L999.688 1000L2.18557e-05 1000Z" fill="#C62828"/>
<path d="M2.18557e-05 1000L-2.18557e-05 0L88.0365 -3.8482e-06L155.44 1000L2.18557e-05 1000Z" fill="white" style="mix-blend-mode:overlay"/>
<path d="M1000 1000L1000 -1.1244e-05L742.768 0L810.171 1000L1000 1000Z" fill="#B71C1C" style="mix-blend-mode:overlay"/>
</g>
<defs>
<clipPath id="clip0">
<rect width="1000" height="1000" fill="white" transform="translate(2.18557e-05 1000) rotate(-90)"/>
</clipPath>
</defs>
</svg>
