<svg width="1000" height="1000" viewBox="0 0 1000 1000" fill="none" xmlns="http://www.w3.org/2000/svg">
<g clip-path="url(#clip0)">
<rect width="1000" height="1000" transform="translate(1000) rotate(90)" fill="white"/>
<rect x="1000" y="2.18557e-05" width="1000" height="1000" transform="rotate(90 1000 2.18557e-05)" fill="#9E9D24"/>
<path d="M1000 2.18557e-05L1000 240L-1.88833e-05 432L0.000427246 -2.18557e-05L1000 2.18557e-05Z" fill="#FFEE58"/>
<path d="M1000 2.18557e-05L1000 1000L744 1000L548 2.09815e-06L1000 2.18557e-05Z" fill="#F9A825" style="mix-blend-mode:overlay"/>
<path d="M0 -2.18557e-05L-4.37114e-05 1000L248 1000L52 -1.95827e-05L0 -2.18557e-05Z" fill="#7CB342" style="mix-blend-mode:overlay"/>
</g>
<defs>
<clipPath id="clip0">
<rect width="1000" height="1000" fill="white" transform="translate(1000) rotate(90)"/>
</clipPath>
</defs>
</svg>
