<svg width="1000" height="1000" viewBox="0 0 1000 1000" fill="none" xmlns="http://www.w3.org/2000/svg">
<g clip-path="url(#clip0)">
<rect width="1000" height="1000" transform="translate(1000 1000) rotate(180)" fill="white"/>
<rect width="999.998" height="1000" transform="matrix(1 -8.74228e-08 -8.74228e-08 -1 0 1000)" fill="#BF360C"/>
<path d="M0 1000L140 1000L200 -1.74845e-05L-8.74228e-05 0L0 1000Z" fill="#E65100"/>
<path d="M1000 1000L680.001 1000L740.001 -5.24536e-06L1000 -2.79752e-05L1000 1000Z" fill="#E65100"/>
<path d="M0 1000L999.998 1000L999.998 744L-2.55275e-05 708L0 1000Z" fill="#FFD180" style="mix-blend-mode:overlay"/>
<path d="M-2.46532e-05 0L999.998 -8.74226e-05L999.998 282L-3.14722e-06 246L-2.46532e-05 0Z" fill="#A73C3C" style="mix-blend-mode:overlay"/>
</g>
<defs>
<clipPath id="clip0">
<rect width="1000" height="1000" fill="white" transform="translate(1000 1000) rotate(180)"/>
</clipPath>
</defs>
</svg>
