<svg width="436" height="888" viewBox="0 0 436 888" fill="none" xmlns="http://www.w3.org/2000/svg">
<g filter="url(#filter0_i)">
<path fill-rule="evenodd" clip-rule="evenodd" d="M2.50287 813.5C2.50287 566.739 2.50287 321.631 2.50287 74.5C2.50287 30.7334 25.0326 0 77.589 0C130.31 0 338.274 0 359.913 0C394.351 0 433.998 14.8945 433.998 74.5C433.998 321.174 433.998 566.303 433.998 813.5C433.998 838.288 426.912 888 358.411 888C290.289 888 171.139 888 77.589 888C9.88535 888 2.50287 838.564 2.50287 813.5Z" fill="#9499A8"/>
</g>
<g filter="url(#filter1_i)">
<path fill-rule="evenodd" clip-rule="evenodd" d="M0 114.5C0 113.672 0.671573 113 1.5 113H3.50402V149H1.5C0.671572 149 0 148.328 0 147.5V114.5Z" fill="#CBD1DC"/>
</g>
<g filter="url(#filter2_i)">
<path fill-rule="evenodd" clip-rule="evenodd" d="M0.50058 190.5C0.50058 189.672 1.17215 189 2.00058 189L4.0046 189V255H2.00058C1.17215 255 0.50058 254.328 0.50058 253.5V190.5Z" fill="#CBD1DC"/>
</g>
<g filter="url(#filter3_i)">
<path fill-rule="evenodd" clip-rule="evenodd" d="M0.50058 271.5C0.50058 270.672 1.17215 270 2.00058 270H4.0046V336H2.00058C1.17215 336 0.50058 335.328 0.50058 334.5V271.5Z" fill="#CBD1DC"/>
</g>
<g filter="url(#filter4_i)">
<path fill-rule="evenodd" clip-rule="evenodd" d="M436 190.729C436 189.816 435.192 189.115 434.288 189.244L433.784 189.316C433.045 189.422 432.496 190.055 432.496 190.801V253.199C432.496 253.945 433.045 254.578 433.784 254.684L434.288 254.756C435.192 254.885 436 254.183 436 253.271V190.729Z" fill="#CBD1DC"/>
</g>
<path d="M9.5119 816C9.5119 791.775 9.50964 318.631 9.5119 71.5C9.51218 40.8574 23.3334 7 74.5865 7C125.84 7 341.278 7 362.917 7C397.355 7 426.991 24.8408 426.991 71.5C426.991 318.174 426.991 798.842 426.991 816.5C426.991 834.158 421.765 881 361.916 881H75.0871C18.6009 881 9.5119 840.225 9.5119 816V816Z" fill="#333640"/>
<path fill-rule="evenodd" clip-rule="evenodd" d="M13.0159 816V816C13.0159 830.843 16.3571 844.767 23.981 855.567C33.8901 869.606 50.4177 877.5 75.0871 877.5H361.916C387.625 877.5 404.3 868.762 413.933 853.505C420.791 842.643 423.487 829.639 423.487 816.5C423.487 815.867 423.487 724.47 423.487 670.32C423.487 566.744 423.487 466.663 423.487 372.68C423.487 249.851 423.487 147.412 423.487 71.5C423.487 50.2631 417.175 34.5919 405.554 24.3807C395.059 15.1594 380.273 10.5 362.917 10.5C347.032 10.5 347.032 10.5 309.847 10.5C265.563 10.5 265.563 10.5 214.179 10.5C202.66 10.5 202.66 10.5 191.221 10.5C118.183 10.5 118.183 10.5 74.5865 10.5C51.6924 10.5 35.6277 17.4013 25.564 29.9475C17.0744 40.5312 13.0161 55.0163 13.0159 71.5C13.0152 147.398 13.0149 248.955 13.0149 370.458C13.0149 463.873 13.0151 563.099 13.0154 667.133C13.0156 717.227 13.0159 813.418 13.0159 816V816Z" fill="#1A1C21"/>
<path opacity="0.2" fill-rule="evenodd" clip-rule="evenodd" d="M27.7531 852.244C20.2773 841.531 17.001 827.719 17.001 812.997L17.0005 665.331C17.0002 562.137 17 463.712 17 371.052C17 250.53 17.0003 149.792 17.001 74.5075C17.0011 58.1569 20.9807 43.7887 29.3053 33.2905C39.1736 20.8456 54.9264 14 77.3758 14H80.8758C58.9841 14 43.6227 20.8456 33.9996 33.2905C25.8818 43.7887 22.0011 58.1569 22.001 74.5075C22.0003 149.792 22 250.53 22 371.052C22 463.712 22.0002 562.137 22.0005 665.331L22.001 812.997C22.001 827.719 25.1959 841.531 32.4859 852.244C41.9612 866.169 57.7652 874 81.3545 874H77.8667C53.6764 874 37.4698 866.169 27.7531 852.244ZM355.625 874H359.125C384.335 874 400.686 865.332 410.132 850.198C416.857 839.424 419.5 826.526 419.5 813.492L419.5 668.493V373.255L419.5 74.5075C419.5 53.4421 413.311 37.8974 401.915 27.7686C391.625 18.6218 377.126 14 360.107 14H356.582C373.179 14 387.317 18.6218 397.352 27.7686C408.464 37.8974 414.5 53.4421 414.5 74.5075L414.5 373.255V668.493L414.5 813.492C414.5 826.526 411.922 839.424 405.365 850.198C396.153 865.332 380.209 874 355.625 874Z" fill="white"/>
<path fill-rule="evenodd" clip-rule="evenodd" d="M184 833C184 851.778 199.222 867 218 867C236.778 867 252 851.778 252 833C252 814.222 236.778 799 218 799C199.222 799 184 814.222 184 833ZM248 833C248 849.569 234.569 863 218 863C201.431 863 188 849.569 188 833C188 816.431 201.431 803 218 803C234.569 803 248 816.431 248 833Z" fill="url(#paint0_radial)"/>
<path fill-rule="evenodd" clip-rule="evenodd" d="M27 113C27 111.343 28.3431 110 30 110H407C408.657 110 410 111.343 410 113V782C410 783.657 408.657 785 407 785H30C28.3431 785 27 783.657 27 782V113Z" fill="black"/>
<path fill-rule="evenodd" clip-rule="evenodd" d="M180.707 58.25C180.707 56.4551 182.162 55 183.957 55H253.044C254.839 55 256.294 56.4551 256.294 58.25V58.25C256.294 60.0449 254.839 61.5 253.044 61.5H183.957C182.162 61.5 180.707 60.0449 180.707 58.25V58.25Z" fill="#333640"/>
<path fill-rule="evenodd" clip-rule="evenodd" d="M150.25 65.5C154.254 65.5 157.5 62.2541 157.5 58.25C157.5 54.2459 154.254 51 150.25 51C146.246 51 143 54.2459 143 58.25C143 62.2541 146.246 65.5 150.25 65.5Z" fill="#333640"/>
<path fill-rule="evenodd" clip-rule="evenodd" d="M218.751 34.5C221.515 34.5 223.757 32.2614 223.757 29.5C223.757 26.7386 221.515 24.5 218.751 24.5C215.986 24.5 213.745 26.7386 213.745 29.5C213.745 32.2614 215.986 34.5 218.751 34.5Z" fill="#333640"/>
<path fill-rule="evenodd" clip-rule="evenodd" d="M31 114H406V134H31V114Z" fill="black"/>
<path fill-rule="evenodd" clip-rule="evenodd" d="M365 121C365 119.619 366.119 118.5 367.5 118.5H386.5C387.881 118.5 389 119.619 389 121V127.5C389 128.881 387.881 130 386.5 130H367.5C366.119 130 365 128.881 365 127.5V121ZM367.5 119.5H386.5C387.328 119.5 388 120.172 388 121V127.5C388 128.328 387.328 129 386.5 129H367.5C366.672 129 366 128.328 366 127.5V121C366 120.172 366.672 119.5 367.5 119.5Z" fill="#848484"/>
<path d="M391.5 124.25C391.5 125.23 390.874 126.063 390 126.372V122.128C390.874 122.437 391.5 123.27 391.5 124.25Z" fill="#848484"/>
<path d="M367 121.5C367 120.948 367.448 120.5 368 120.5H372V128H368C367.448 128 367 127.552 367 127V121.5Z" fill="#43D551"/>
<path d="M394.5 124.5L398.5 119L397.5 123H400L395.5 129L397 124.5H394.5Z" fill="white"/>
<path d="M207.884 126.23C208.064 126.81 208.194 127.07 208.444 127.35C209.014 128 209.814 128.3 210.984 128.3C212.054 128.3 212.894 128.02 213.444 127.49C213.814 127.12 214.044 126.57 214.044 126.03C214.044 125.44 213.894 125.02 213.564 124.65C213.214 124.26 212.844 124.09 212.134 123.98C212.664 123.84 212.884 123.76 213.104 123.59C213.534 123.27 213.794 122.72 213.794 122.12C213.794 120.82 212.714 119.98 211.044 119.98C210.244 119.98 209.594 120.16 209.084 120.53C208.614 120.87 208.384 121.22 208.134 121.96L209.564 122.2C209.684 121.79 209.784 121.62 209.984 121.43C210.224 121.23 210.584 121.12 211.074 121.12C211.924 121.12 212.394 121.51 212.394 122.2C212.394 122.97 211.804 123.43 210.804 123.43C210.374 123.43 210.154 123.42 209.834 123.38V124.62C210.174 124.58 210.464 124.57 210.904 124.57C211.344 124.57 211.814 124.67 212.054 124.81C212.414 125.02 212.614 125.4 212.614 125.86C212.614 126.65 211.984 127.16 210.994 127.16C210.514 127.16 210.114 127.03 209.784 126.77C209.534 126.57 209.444 126.41 209.314 125.95L207.884 126.23Z" fill="white"/>
<path d="M215.213 122.38V123.84H216.673V122.38H215.213ZM215.213 126.66V128.12H216.673V126.66H215.213Z" fill="white"/>
<path d="M224.168 125.06C223.798 125.11 223.558 125.13 223.158 125.13H222.808V121.85C222.808 121.09 222.818 120.74 222.878 120.16H221.528C221.298 120.52 221.138 120.73 220.698 121.26L218.328 124.16C217.978 124.58 217.868 124.71 217.528 125.08V126.31C217.868 126.28 218.188 126.27 218.778 126.27H221.548V126.96C221.548 127.46 221.528 127.77 221.468 128.12H222.888C222.828 127.75 222.808 127.49 222.808 126.98V126.27H223.168C223.588 126.28 223.798 126.29 224.168 126.34V125.06ZM221.558 125.14H219.008L220.928 122.76C221.288 122.32 221.408 122.16 221.608 121.87C221.568 122.28 221.558 122.6 221.558 123.07V125.14Z" fill="white"/>
<path d="M231.287 125.06C230.917 125.11 230.677 125.13 230.277 125.13H229.927V121.85C229.927 121.09 229.937 120.74 229.997 120.16H228.647C228.417 120.52 228.257 120.73 227.817 121.26L225.447 124.16C225.097 124.58 224.987 124.71 224.647 125.08V126.31C224.987 126.28 225.307 126.27 225.897 126.27H228.667V126.96C228.667 127.46 228.647 127.77 228.587 128.12H230.007C229.947 127.75 229.927 127.49 229.927 126.98V126.27H230.287C230.707 126.28 230.917 126.29 231.287 126.34V125.06ZM228.677 125.14H226.127L228.047 122.76C228.407 122.32 228.527 122.16 228.727 121.87C228.687 122.28 228.677 122.6 228.677 123.07V125.14Z" fill="white"/>
<path d="M79.3998 123.34L78 121.926C81.86 118.025 88.1403 118.025 92 121.926L90.6002 123.34C87.5127 120.221 82.4884 120.22 79.3998 123.34Z" fill="white"/>
<path d="M80.8002 124.755L82.2 126.17C83.7441 124.609 86.2556 124.609 87.8 126.17L89.2001 124.755C86.8849 122.415 83.1154 122.415 80.8002 124.755Z" fill="white"/>
<path d="M83.6001 127.585L85.0002 129L86.3998 127.585C85.627 126.804 84.3729 126.804 83.6001 127.585Z" fill="white"/>
<path d="M43.667 121.697C43.403 121.015 43.194 120.685 42.809 120.311C42.215 119.717 41.379 119.42 40.345 119.42C39.3 119.42 38.464 119.739 37.826 120.355C37.012 121.158 36.572 122.357 36.572 123.776C36.572 125.151 36.99 126.35 37.76 127.12C38.387 127.758 39.278 128.088 40.334 128.088C41.566 128.088 42.567 127.637 43.183 126.812C43.447 126.46 43.59 126.152 43.777 125.503L42.864 125.283C42.765 125.789 42.655 126.064 42.424 126.383C41.973 126.977 41.236 127.307 40.367 127.307C38.596 127.307 37.463 125.921 37.463 123.743C37.463 121.554 38.585 120.19 40.367 120.19C41.17 120.19 41.83 120.465 42.27 120.982C42.501 121.246 42.622 121.477 42.787 121.95L43.667 121.697Z" fill="white"/>
<path d="M49.0115 127.934H49.9025C49.8365 127.494 49.8145 127.219 49.8145 126.724V123.633C49.8145 122.445 49.0665 121.829 47.6145 121.829C46.7895 121.829 46.1295 122.038 45.6785 122.456C45.4035 122.698 45.2605 122.929 45.0625 123.435L45.9205 123.622C46.0305 123.292 46.1185 123.138 46.2615 122.984C46.5695 122.665 47.0205 122.511 47.6255 122.511C48.5385 122.511 49.0115 122.896 49.0115 123.644V124.282C47.6585 124.315 47.1305 124.381 46.4815 124.568C45.4585 124.854 44.9085 125.492 44.9085 126.372C44.9085 127.417 45.6455 128.044 46.8555 128.044C47.2295 128.044 47.6255 127.967 47.9995 127.824C48.3735 127.681 48.5825 127.538 49.0115 127.153V127.934ZM49.0115 125.646C49.0115 126.086 48.9235 126.317 48.6705 126.592C48.2415 127.065 47.5485 127.373 46.9105 127.373C46.1955 127.373 45.7445 126.988 45.7445 126.383C45.7445 125.855 46.0195 125.481 46.5805 125.25C47.0755 125.041 47.7025 124.964 49.0115 124.931V125.646Z" fill="white"/>
<path d="M55.2286 122.005C54.7666 121.928 54.5796 121.906 54.2496 121.906C53.7216 121.906 53.3476 122.016 52.9296 122.291C52.6986 122.445 52.5336 122.621 52.3246 122.962C52.3356 122.885 52.3356 122.72 52.3356 122.632V122.005H51.4226C51.4776 122.401 51.4996 122.698 51.4996 123.248V126.691C51.4996 127.142 51.4776 127.428 51.4226 127.934H52.4126C52.3576 127.505 52.3356 127.197 52.3356 126.702V124.458C52.3796 123.963 52.4786 123.699 52.7426 123.358C53.0726 122.918 53.5346 122.687 54.0956 122.687C54.3706 122.687 54.5686 122.72 54.9866 122.852L55.2286 122.005Z" fill="white"/>
<path d="M61.3412 125.096C61.3192 124.799 61.2752 124.37 61.2642 124.249C61.0442 122.775 60.0212 121.862 58.6022 121.862C56.9522 121.862 55.8742 123.094 55.8742 124.975C55.8742 126.878 56.9632 128.088 58.6902 128.088C59.4932 128.088 60.1642 127.824 60.6812 127.318C60.9342 127.065 61.0772 126.867 61.2862 126.405L60.5162 126.097C60.2082 126.944 59.5922 127.384 58.7012 127.384C58.0412 127.384 57.5022 127.12 57.1502 126.636C56.8532 126.24 56.7432 125.833 56.7102 125.096H61.3412ZM56.7432 124.403C56.8092 123.985 56.8642 123.787 57.0182 123.512C57.3482 122.896 57.9092 122.555 58.5802 122.555C59.1082 122.555 59.5372 122.72 59.8782 123.05C60.2302 123.391 60.3952 123.787 60.4612 124.403H56.7432Z" fill="white"/>
<path d="M67.808 125.096C67.786 124.799 67.742 124.37 67.731 124.249C67.511 122.775 66.488 121.862 65.069 121.862C63.419 121.862 62.341 123.094 62.341 124.975C62.341 126.878 63.43 128.088 65.157 128.088C65.96 128.088 66.631 127.824 67.148 127.318C67.401 127.065 67.544 126.867 67.753 126.405L66.983 126.097C66.675 126.944 66.059 127.384 65.168 127.384C64.508 127.384 63.969 127.12 63.617 126.636C63.32 126.24 63.21 125.833 63.177 125.096H67.808ZM63.21 124.403C63.276 123.985 63.331 123.787 63.485 123.512C63.815 122.896 64.376 122.555 65.047 122.555C65.575 122.555 66.004 122.72 66.345 123.05C66.697 123.391 66.862 123.787 66.928 124.403H63.21Z" fill="white"/>
<path d="M72.8888 122.005C72.4268 121.928 72.2398 121.906 71.9098 121.906C71.3818 121.906 71.0078 122.016 70.5898 122.291C70.3588 122.445 70.1938 122.621 69.9848 122.962C69.9958 122.885 69.9958 122.72 69.9958 122.632V122.005H69.0828C69.1378 122.401 69.1598 122.698 69.1598 123.248V126.691C69.1598 127.142 69.1378 127.428 69.0828 127.934H70.0728C70.0178 127.505 69.9958 127.197 69.9958 126.702V124.458C70.0398 123.963 70.1388 123.699 70.4028 123.358C70.7328 122.918 71.1948 122.687 71.7558 122.687C72.0308 122.687 72.2288 122.72 72.6468 122.852L72.8888 122.005Z" fill="white"/>
<defs>
<filter id="filter0_i" x="2.50287" y="0" width="431.495" height="888" filterUnits="userSpaceOnUse" color-interpolation-filters="sRGB">
<feFlood flood-opacity="0" result="BackgroundImageFix"/>
<feBlend mode="normal" in="SourceGraphic" in2="BackgroundImageFix" result="shape"/>
<feColorMatrix in="SourceAlpha" type="matrix" values="0 0 0 0 0 0 0 0 0 0 0 0 0 0 0 0 0 0 127 0" result="hardAlpha"/>
<feOffset/>
<feGaussianBlur stdDeviation="3"/>
<feComposite in2="hardAlpha" operator="arithmetic" k2="-1" k3="1"/>
<feColorMatrix type="matrix" values="0 0 0 0 0 0 0 0 0 0 0 0 0 0 0 0 0 0 0.5 0"/>
<feBlend mode="normal" in2="shape" result="effect1_innerShadow"/>
</filter>
<filter id="filter1_i" x="-1" y="113" width="4.50402" height="36" filterUnits="userSpaceOnUse" color-interpolation-filters="sRGB">
<feFlood flood-opacity="0" result="BackgroundImageFix"/>
<feBlend mode="normal" in="SourceGraphic" in2="BackgroundImageFix" result="shape"/>
<feColorMatrix in="SourceAlpha" type="matrix" values="0 0 0 0 0 0 0 0 0 0 0 0 0 0 0 0 0 0 127 0" result="hardAlpha"/>
<feOffset dx="-1"/>
<feGaussianBlur stdDeviation="1"/>
<feComposite in2="hardAlpha" operator="arithmetic" k2="-1" k3="1"/>
<feColorMatrix type="matrix" values="0 0 0 0 0 0 0 0 0 0 0 0 0 0 0 0 0 0 0.8 0"/>
<feBlend mode="normal" in2="shape" result="effect1_innerShadow"/>
</filter>
<filter id="filter2_i" x="-0.49942" y="189" width="4.50402" height="66" filterUnits="userSpaceOnUse" color-interpolation-filters="sRGB">
<feFlood flood-opacity="0" result="BackgroundImageFix"/>
<feBlend mode="normal" in="SourceGraphic" in2="BackgroundImageFix" result="shape"/>
<feColorMatrix in="SourceAlpha" type="matrix" values="0 0 0 0 0 0 0 0 0 0 0 0 0 0 0 0 0 0 127 0" result="hardAlpha"/>
<feOffset dx="-1"/>
<feGaussianBlur stdDeviation="1"/>
<feComposite in2="hardAlpha" operator="arithmetic" k2="-1" k3="1"/>
<feColorMatrix type="matrix" values="0 0 0 0 0 0 0 0 0 0 0 0 0 0 0 0 0 0 0.8 0"/>
<feBlend mode="normal" in2="shape" result="effect1_innerShadow"/>
</filter>
<filter id="filter3_i" x="-0.49942" y="270" width="4.50402" height="66" filterUnits="userSpaceOnUse" color-interpolation-filters="sRGB">
<feFlood flood-opacity="0" result="BackgroundImageFix"/>
<feBlend mode="normal" in="SourceGraphic" in2="BackgroundImageFix" result="shape"/>
<feColorMatrix in="SourceAlpha" type="matrix" values="0 0 0 0 0 0 0 0 0 0 0 0 0 0 0 0 0 0 127 0" result="hardAlpha"/>
<feOffset dx="-1"/>
<feGaussianBlur stdDeviation="1"/>
<feComposite in2="hardAlpha" operator="arithmetic" k2="-1" k3="1"/>
<feColorMatrix type="matrix" values="0 0 0 0 0 0 0 0 0 0 0 0 0 0 0 0 0 0 0.8 0"/>
<feBlend mode="normal" in2="shape" result="effect1_innerShadow"/>
</filter>
<filter id="filter4_i" x="432.496" y="189.229" width="4.50402" height="65.5421" filterUnits="userSpaceOnUse" color-interpolation-filters="sRGB">
<feFlood flood-opacity="0" result="BackgroundImageFix"/>
<feBlend mode="normal" in="SourceGraphic" in2="BackgroundImageFix" result="shape"/>
<feColorMatrix in="SourceAlpha" type="matrix" values="0 0 0 0 0 0 0 0 0 0 0 0 0 0 0 0 0 0 127 0" result="hardAlpha"/>
<feOffset dx="1"/>
<feGaussianBlur stdDeviation="1"/>
<feComposite in2="hardAlpha" operator="arithmetic" k2="-1" k3="1"/>
<feColorMatrix type="matrix" values="0 0 0 0 0 0 0 0 0 0 0 0 0 0 0 0 0 0 0.9 0"/>
<feBlend mode="normal" in2="shape" result="effect1_innerShadow"/>
</filter>
<radialGradient id="paint0_radial" cx="0" cy="0" r="1" gradientUnits="userSpaceOnUse" gradientTransform="translate(218 799) rotate(90) scale(68 42.5)">
<stop stop-color="#B3B9C7" stop-opacity="0.2"/>
<stop offset="0.756906" stop-color="#B3B9C7" stop-opacity="0"/>
<stop offset="1" stop-color="#B3B9C7" stop-opacity="0.4"/>
</radialGradient>
</defs>
</svg>
