<svg width="80" height="80" viewBox="0 0 80 80" fill="none" xmlns="http://www.w3.org/2000/svg">
<path fill-rule="evenodd" clip-rule="evenodd" d="M56 36H66V72H14V36H24V24C24 19.8 25.7 15.7 28.7 12.7C31.7 9.7 35.8 8 40 8C44.2 8 48.3 9.7 51.3 12.7C54.3 15.7 56 19.8 56 24V36ZM40 10C36.3 10 32.7 11.5 30.1 14.1C27.5 16.7 26 20.3 26 24V36H54V24C54 20.3 52.5 16.7 49.9 14.1C47.3 11.5 43.7 10 40 10ZM16 38V70H64V38H16ZM35 51C35 48.2 37.2 46 40 46C42.8 46 45 48.2 45 51C45 53 43.8 54.8 42 55.6V62H38V55.6C36.2 54.8 35 53 35 51Z" fill="url(#paint0_linear)"/>
<defs>
<linearGradient id="paint0_linear" x1="66" y1="39.9998" x2="14" y2="39.9998" gradientUnits="userSpaceOnUse">
<stop stop-color="#DD43F1"/>
<stop offset="1" stop-color="#5F78FF"/>
</linearGradient>
</defs>
</svg>
