<svg width="120" height="120" viewBox="0 0 120 120" fill="none" xmlns="http://www.w3.org/2000/svg">
<path fill-rule="evenodd" clip-rule="evenodd" d="M42 32C42 26.5 37.5 22 32 22C26.5 22 22 26.5 22 32C22 37.5 26.5 42 32 42C37.5 42 42 37.5 42 32ZM20 32C20 25.4 25.4 20 32 20C35.8093 20 39.2189 21.7989 41.4212 24.5891C47.0159 21.6957 53.3084 20 60 20C82.1 20 100 37.9 100 60C100 82.1 82.1 100 60 100C50.4056 100 41.6029 96.6263 34.7126 91H34V90.4042C25.4296 83.0693 20 72.1716 20 60C20 53.3084 21.6957 47.0159 24.5891 41.4212C21.7989 39.2189 20 35.8093 20 32ZM26.2794 42.5391C23.4926 47.829 22 53.7155 22 60C22 70.9385 26.6124 80.7918 34 87.7225V81C34 78.4 38 77.3 43.2 76C47.9 74.8 53.6 73.3 55.1 70.6C56 67.5 54.6 64.5 52.8 60.8C51 57 49 52.7 49 47C49 41.8 51.7 32 62 32C72.3 32 76 41 76 47C76 52.1 70.2 65.8 69.9 66.4L68.1 65.6C68.1 65.5873 68.1956 65.3525 68.3625 64.9428C69.5065 62.1341 74 51.1017 74 47C74 43.4 71.8 34 62 34C51.1 34 51 46.9 51 47C51 52.2 52.9 56.4 54.6 60C56.4 63.8 58 67.4 56.9 71.3L56.8 71.5C55 75.1 48.9 76.7 43.5 78C43.2276 78.0726 42.9421 78.1477 42.6479 78.2251L42.6479 78.2251C39.7026 78.9998 35.9 79.9999 35.9 81V89.3903C42.4564 94.7715 50.8484 98 60 98C81 98 98 81 98 60C98 39 81 22 60 22C53.7155 22 47.829 23.4926 42.5391 26.2794C43.47 27.9824 44 29.9323 44 32C44 38.6 38.6 44 32 44C29.9323 44 27.9824 43.47 26.2794 42.5391ZM28.2 27.4H30.7V40.4H33V25.3H29.4L28.2 27.4ZM76 80H67V82H76V91H78V82H87V80H78V71H76V80Z" fill="url(#paint0_linear)"/>
<defs>
<linearGradient id="paint0_linear" x1="100" y1="59.9998" x2="20" y2="59.9998" gradientUnits="userSpaceOnUse">
<stop stop-color="#DD43F1"/>
<stop offset="1" stop-color="#5F78FF"/>
</linearGradient>
</defs>
</svg>
