<svg width="120" height="120" viewBox="0 0 120 120" fill="none" xmlns="http://www.w3.org/2000/svg">
<path fill-rule="evenodd" clip-rule="evenodd" d="M32 22C37.5 22 42 26.5 42 32C42 37.5 37.5 42 32 42C26.5 42 22 37.5 22 32C22 26.5 26.5 22 32 22ZM32 20C25.4 20 20 25.4 20 32C20 35.8093 21.7989 39.2189 24.5891 41.4212C21.6957 47.0159 20 53.3084 20 60C20 82.1 37.9 100 60 100C82.1 100 100 82.1 100 60C100 37.9 82.1 20 60 20C53.3084 20 47.0159 21.6957 41.4212 24.5891C39.2189 21.7989 35.8093 20 32 20ZM42.5391 26.2794C43.47 27.9824 44 29.9323 44 32C44 38.6 38.6 44 32 44C29.9323 44 27.9824 43.47 26.2794 42.5391C23.4926 47.829 22 53.7155 22 60C22 81 39 98 60 98C81 98 98 81 98 60C98 39 81 22 60 22C53.7155 22 47.829 23.4926 42.5391 26.2794ZM34 66H32V62.4C32 60.9047 33.6893 60.5025 35.7801 60.0047L35.8 60C37.2 59.7 39.3 59.1 39.7 58.4C39.9 57.6 39.5 56.7 38.9 55.4C38.2 54 37.4 52.3 37.4 50.1C37.4 48 38.5 44 42.8 44C47 44 48.6 47.6 48.6 50.1C48.6 51.7227 47.2175 55.123 46.5891 56.6685C46.4431 57.0278 46.3377 57.2868 46.3 57.4L44.5 56.6C45.3 54.7 46.6 51.3 46.6 50.1C46.6 50.1 46.6 46 42.8 46C39.4 46 39.4 49.9 39.4 50.1C39.4 51.9 40 53.2 40.7 54.5L40.7732 54.6567C41.4474 56.098 42.0826 57.4558 41.6 59L41.5 59.2C40.7 60.8 38.3 61.4 36.2 61.9C35.4 62.1 34.3 62.4 33.9 62.6L34 66ZM67.4 90H69.4V86.7C69.8 86.5 71 86.2 71.8 86C71.9763 85.954 72.1531 85.9086 72.3297 85.8633L72.3299 85.8633L72.3301 85.8632L72.3302 85.8632L72.3304 85.8631L72.3306 85.8631L72.3307 85.863L72.3309 85.863C74.4592 85.3167 76.5615 84.7771 77.3 83.3L77.4 83.1C77.9 81.4 77.2 79.9 76.5 78.5L76.4561 78.4051L76.3915 78.2656L76.3911 78.2647C75.8185 77.0308 75.2 75.6979 75.2 74.1C75.2 73.9 75.3 70 78.8 70C82.8 70 82.8 74.1 82.8 74.1C82.8 75.3 81.5 78.7 80.6 80.6L82.4 81.4C82.7 80.9 84.8 76.1 84.8 74.1C84.8 71.6 83.2 68 78.8 68C74.7 68 73.2 71.7 73.2 74.1C73.2 76.3 74 78 74.7 79.4C75.3 80.7 75.7 81.6 75.5 82.4C75 83.1 72.9 83.7 71.4 84L71.3605 84.009C69.1785 84.5048 67.4 84.909 67.4 86.4V90ZM69.7004 52H52C51.4 52 51 51.6 51 51C51 50.4 51.4 50 52 50H75.7004C76.2003 49.8003 76.8 50.1003 77 50.6001C77.1171 50.893 77.0628 51.2201 76.8972 51.4811C76.7563 51.7738 76.4789 51.962 76.1159 51.9949L58.1004 58H76C76.6 58 77 58.4 77 59C77 59.6 76.6 60 76 60H52.0341L52 60.0001L51.9854 60L51.9759 59.9998C51.3893 59.9892 51 59.5919 51 59C51 58.5982 51.1794 58.2861 51.478 58.1238C51.5462 58.0738 51.6206 58.0319 51.7 58.0001L69.7004 52ZM42 76H59.7004L41.7 82.0001C41.6206 82.0319 41.5462 82.0738 41.478 82.1238C41.1794 82.2861 41 82.5982 41 83C41 83.5919 41.3893 83.9892 41.9759 83.9998L41.9856 84L42 84.0001L42.0341 84H66C66.6 84 67 83.6 67 83C67 82.4 66.6 82 66 82H48.1004L66.1159 75.9949C66.4789 75.962 66.7563 75.7738 66.8972 75.4811C67.0628 75.2201 67.1171 74.893 67 74.6001C66.8 74.1003 66.2003 73.8003 65.7004 74H42C41.4 74 41 74.4 41 75C41 75.6 41.4 76 42 76ZM34.3 35.1001H35.9V37.2001H34.3V39.3001H32V37.2001H24.6L34.3 23.1001V35.1001ZM32 35.1001V30.1001L28.5 35.1001H32Z" fill="url(#paint0_linear)"/>
<defs>
<linearGradient id="paint0_linear" x1="100" y1="59.9998" x2="20" y2="59.9998" gradientUnits="userSpaceOnUse">
<stop stop-color="#DD43F1"/>
<stop offset="1" stop-color="#5F78FF"/>
</linearGradient>
</defs>
</svg>
